<svg xmlns="http://www.w3.org/2000/svg" viewBox="0 0 572 510">
  <path fill="#3A4A9F" d="M38.485.96C62.269 46.782 84.11 94.548 106.651 141.612 73.095 117.403 39.531 93.201 6.322 68.646 16.833 45.873 28.153 23.911 38.485.96zM532.448.96C544.275 22.576 553.997 46.296 565.57 68.166 532.58 93.26 498.646 117.413 464.76 141.612 487.36 94.765 509.818 47.775 532.448.96zM.082 81.607C-.006 81.199.269 81.154.562 81.127 93.411 148.928 186.981 216.019 279.466 284.185 274.056 301.016 268.541 317.745 263.145 334.589 190.306 282.777 118.862 229.573 46.166 177.615 31.003 145.414 15.582 113.472.082 81.607zM571.331 81.127C560.17 105.567 544.179 138.586 531.488 165.614 529.618 169.596 527.586 174.749 525.726 177.135 523.349 180.186 516.924 183.845 512.286 187.216 453.277 230.085 394.134 272.595 335.15 315.387 326.242 321.85 318.032 329.305 308.267 334.11 303.267 317.346 297.621 301.231 292.426 284.666 314.56 266.534 338.31 250.436 361.551 233.781 384.806 217.117 407.498 199.713 430.677 182.897 477.494 148.932 524.537 115.266 571.331 81.127zM512.286 203.538C500.236 230.682 485.741 260.183 472.442 288.505 470.504 292.632 468.421 298.006 466.681 300.026 464.923 302.065 460.814 303.736 458.039 305.786 438.921 319.925 419.294 334.175 399.954 348.03 371.632 348.03 343.308 348.03 314.987 348.03 313.841 346.203 317.833 345.11 319.787 343.71 350.201 321.916 380.852 298.311 411.955 276.023 445.688 251.853 479.398 227.48 512.286 203.538zM284.267 355.23C296.351 354.46 307.207 361.295 312.111 369.63 320.126 383.258 315.928 402.175 302.508 410.914 284.013 422.958 255.657 411.289 255.464 385.472 255.338 368.62 267.338 356.308 284.267 355.23zM242.023 399.395C235.169 420.707 228.131 441.831 221.38 463.242 198.702 447.997 177.393 431.383 155.134 415.718 172.667 401.888 191.303 389.161 209.379 375.874 220.302 383.672 230.89 391.806 242.023 399.395zM416.758 415.236C394.93 431.491 372.99 447.632 350.512 463.24 343.498 442.411 336.951 421.116 329.87 400.354 339.672 391.593 352.206 383.005 362.514 376.351 381.09 388.818 398.464 402.487 416.758 415.236zM339.951 470.44C323.041 484.733 304.012 496.906 286.185 510.284 267.251 498.013 250.164 483.9 231.46 471.4 249.072 457.649 267.71 444.923 285.705 431.556 304.107 444.198 321.424 457.926 339.951 470.44zM58.647 203.538C58.738 202.993 59.128 203.271 59.127 203.538 124.946 251.221 193.013 299.772 257.384 348.031 236.039 348.031 215.28 348.031 193.538 348.031 186.769 348.031 178.444 349.364 172.416 348.031 167.112 346.857 160.503 339.951 155.134 336.03 138.173 323.638 120.999 311.301 104.73 299.547 89.613 267.299 74.152 235.397 58.647 203.538z" transform="translate(0 -1)"/>
</svg>
