<svg xmlns="http://www.w3.org/2000/svg" viewBox="0 0 586 554">
  <g fill="none">
    <path fill="#0072AF" d="M585.8533,334.603 C585.8533,334.603 550.4643,272.798 490.9043,272.349 C508.5883,328.559 479.0323,389.019 479.0323,389.019 L510.3823,373.05 C509.8073,376.515 507.5293,386.049 499.0423,394.53 C497.0663,396.518 494.7413,398.443 492.0113,400.214 C482.9863,404.989 480.8243,402.456 480.8243,402.456 L453.1853,374.671 C475.0133,342.77 486.7583,305.088 486.7583,265.591 C486.7583,235.664 480.0103,206.777 467.2663,180.654 L516.9863,223.16 L522.3293,227.726 L527.3043,222.758 L555.5163,194.54 L560.9763,189.086 L555.4343,183.707 L493.2383,123.342 C504.3493,122.047 515.1033,117.162 523.6193,108.656 C543.6813,88.593 543.6813,55.938 523.6193,35.885 C503.5483,15.809 470.8933,15.82 450.8323,35.885 C441.9473,44.768 437.0033,56.131 435.9883,67.764 L372.4833,6.127 L367.1913,1.001 L361.8953,6.127 L332.1063,35.012 L326.7543,40.21 L331.8493,45.663 L371.8043,88.435 C347.3003,77.505 320.5643,71.773 292.9403,71.773 C265.3513,71.773 238.6323,77.504 214.1493,88.398 L254.0823,45.663 L259.1703,40.21 L253.8153,35.012 L224.0253,6.127 L218.7363,0.989 L213.4483,6.127 L149.9443,67.764 C148.9223,56.131 143.9873,44.767 135.1033,35.885 C115.0383,15.809 82.3893,15.809 62.3173,35.885 C42.2573,55.939 42.2573,88.594 62.3173,108.656 C70.8243,117.162 81.5753,122.047 92.6873,123.342 L30.4863,183.707 L24.9503,189.086 L30.4153,194.54 L58.6223,222.758 L63.5963,227.726 L68.9353,223.16 L118.5943,180.738 C105.8603,206.837 99.1233,235.687 99.1233,265.591 C99.1233,305.092 110.8743,342.774 132.6913,374.691 L105.0423,402.463 C105.0423,402.463 102.8733,404.996 93.8393,400.221 C91.1253,398.45 88.7993,396.526 86.8123,394.537 C78.3323,386.056 76.0463,376.521 75.4833,373.057 L106.8283,389.026 C106.8283,389.026 77.2643,328.565 94.9543,272.356 C35.4013,272.806 0.0093,334.61 0.0093,334.61 L27.6473,348.691 C24.7693,355.754 16.7173,382.774 42.5633,419.707 C72.7863,462.925 62.4993,496.961 62.4993,496.961 C62.4993,496.961 93.2823,488.128 139.2933,511.976 C176.7763,532.172 214.2123,525.435 218.5553,524.562 L236.7193,553.848 C236.7193,553.848 290.2323,518.844 292.9203,460.915 C248.4363,472.561 175.3503,454.869 175.3503,454.869 L190.6563,479.538 C185.8783,478.399 170.2573,474.218 163.6383,467.602 C163.0613,467.019 162.5703,466.45 162.1423,465.844 C155.8713,456.879 163.0383,451.96 163.0383,451.96 L187.0283,427.97 C218.2483,448.421 254.7423,459.41 292.9383,459.41 C331.1213,459.41 367.6163,448.421 398.8383,427.979 L422.8213,451.959 C422.8213,451.959 429.9903,456.878 423.7223,465.843 C423.2943,466.448 422.7843,467.018 422.2323,467.601 C415.6043,474.216 399.9833,478.398 395.2013,479.537 L410.5043,454.868 C410.5043,454.868 337.4303,472.559 292.9443,460.914 C295.6273,518.843 349.1453,553.848 349.1453,553.848 L367.3033,524.561 C371.6573,525.434 409.0773,532.171 446.5623,511.975 C492.5813,488.127 523.3703,496.96 523.3703,496.96 C523.3703,496.96 513.0763,462.924 543.3073,419.706 C569.1483,382.773 561.0963,355.753 558.2113,348.69 L585.8533,334.61 L585.8533,334.603 Z"/>
    <path fill="#FFF" d="M218.7493,11.595 L149.7653,78.538 L139.4533,88.548 C141.1933,84.198 142.1926,79.6276 142.4826,75.025 C143.2346,62.898 138.9986,50.526 129.7346,41.255 C112.6026,24.136 84.8306,24.136 67.6976,41.255 C50.5706,58.388 50.5706,86.158 67.6976,103.28 C76.6296,112.223 88.4566,116.486 100.1526,116.098 C103.6736,115.989 107.1722,115.44339 110.5846,114.4984 C111.6566,114.1824 112.7358,113.85515 113.7838,113.4672 L112.3717,114.8383 L103.4537,123.4906 L35.7937,189.1626 L64.0107,217.3816 L129.3487,161.5356 C136.8867,149.7476 145.7617,138.6866 155.8977,128.5436 C167.4857,116.9606 180.2817,107.0236 193.9977,98.8556 L248.5277,40.4826 L218.7477,11.5976 L218.7493,11.595 Z M367.1993,11.5943 L337.4163,40.48 L392.0103,98.919 C405.6813,107.074 418.4433,116.996 429.9983,128.544 C440.1143,138.649 448.9673,149.699 456.4903,161.45 L521.9433,217.382 L550.1523,189.163 L482.4843,123.491 L473.5683,114.8387 L472.1621,113.4676 C473.2181,113.8556 474.2902,114.19785 475.3652,114.4988 C478.7722,115.4558 482.268,115.9894 485.7892,116.0984 C497.4912,116.4864 509.3052,112.2218 518.2482,103.2894 C535.3822,86.1554 535.3822,58.3874 518.2482,41.2544 C501.1152,24.1354 473.3362,24.1354 456.2112,41.2544 C446.9512,50.5244 442.7062,62.8974 443.4592,75.0244 C443.7482,79.6264 444.7554,84.1949 446.4944,88.5454 L436.1824,78.5493 L367.2004,11.5943 L367.1993,11.5943 Z M292.9493,79.374 C258.4943,79.374 226.1983,88.787 198.4883,105.167 C172.9573,120.265 151.3183,141.277 135.4743,166.31 C117.2823,195.076 106.7343,229.11 106.7343,265.593 C106.7343,368.273 190.2663,451.813 292.9443,451.813 C395.6223,451.813 479.1643,368.269 479.1643,265.593 C479.1643,229.086 468.5973,195.001 450.3613,166.226 C434.5573,141.252 412.9663,120.305 387.5023,105.23 C359.7653,88.812 327.4413,79.374 292.9453,79.374 L292.9493,79.374 Z M501.0293,280.694 C506.9713,307.908 503.4373,334.819 499.0703,353.505 C497.3343,360.918 495.3633,367.558 493.4863,373.169 L517.4183,360.978 L518.11556,373.169 C517.65956,376.609 515.33066,389.065 504.48656,399.923 C502.00856,402.381 499.24946,404.6361 496.24246,406.5871 L495.95925,406.78046 L495.63894,406.95039 C483.58794,413.32439 477.84994,410.34199 475.39094,407.71601 L448.65494,381.05801 C443.01494,388.62901 436.78994,395.85401 429.98694,402.65001 C422.42494,410.21201 414.33794,417.05801 405.82494,423.18901 L428.37394,445.79401 C429.96194,447.08001 433.65344,450.73901 434.60244,455.96201 C435.18744,459.21001 436.43894,466.84301 427.66694,472.97401 C418.89994,479.10501 405.42394,490.03601 378.15094,491.64601 C383.13594,483.41801 393.44394,467.23201 393.44394,467.23201 C386.44494,468.51401 334.05794,477.33501 303.85194,471.81211 C308.00294,501.00111 335.10694,531.42311 347.57094,541.45711 L363.64894,515.16411 C363.64894,515.16411 397.05394,526.03211 443.02794,505.28911 L443.06504,505.25391 L443.13534,505.23051 C475.30634,488.54451 500.66234,487.04551 514.36034,487.99051 C513.28734,473.55751 511.68054,454.98351 537.14534,415.34951 C551.13934,393.56451 552.56834,377.80151 552.35234,367.23251 C552.20234,359.90351 548.70004,344.81651 548.70004,344.81651 L574.92104,331.68351 C570.91304,325.98751 564.23104,317.39751 555.23304,308.87851 C546.34504,300.45851 536.94804,293.75651 527.31504,288.97251 C518.73804,284.69451 509.92904,281.93021 501.03004,280.694 L501.0293,280.694 Z M85.2193,280.69389 C76.3143,281.931 67.5073,284.6934 58.9403,288.9714 C49.3033,293.7554 39.9053,300.4574 31.0163,308.8774 C22.0203,317.3964 15.3373,325.9874 11.3343,331.6824 L37.5533,344.8154 C37.5533,344.8154 34.053,359.9024 33.901,367.2314 C33.683,377.7994 35.12,393.5634 49.108,415.3484 C74.578,454.9824 72.961,473.5564 71.893,487.9894 C85.585,487.0434 110.952,488.54263 143.127,505.2294 L143.1817,505.2528 L143.2305,505.288 C189.1945,526.031 222.6115,515.163 222.6115,515.163 L238.6835,541.456 C251.1475,531.422 278.2385,501 282.4005,471.811 C252.1935,477.335 199.8145,468.5129 192.7985,467.2309 C192.7985,467.2309 203.1165,483.4159 208.0955,491.6449 C180.8275,490.0349 167.3605,479.1039 158.5895,472.9729 C149.8225,466.8419 151.0611,459.2089 151.6501,455.9609 C152.6001,450.7379 156.2975,447.0789 157.8845,445.7929 L180.3765,423.4179 C171.7435,417.2369 163.5395,410.3079 155.8765,402.6479 C149.1035,395.8759 142.8945,388.6759 137.2715,381.1419 L110.8515,407.7139 C108.3975,410.3399 102.6494,413.3223 90.6055,406.94828 L90.30081,406.77835 L90.00393,406.58499 C87.00593,404.63399 84.23863,402.37889 81.76563,399.92089 C70.92163,389.06289 68.58863,376.60889 68.14663,373.16889 L68.83218,360.97789 L92.76218,373.16889 C90.88418,367.55789 88.91898,360.91589 87.18798,353.50289 C82.80898,334.81689 79.28318,307.90789 85.21918,280.69389 L85.2193,280.69389 Z"/>
    <path fill="#DC3832" d="M230.1493,252.333 L230.1493,324.296 C231.3233,325.785 232.6135,327.1686 234.0145,328.4386 C236.3355,330.5096 238.8605,332.2073 241.5575,333.6593 L241.5575,252.333 L230.1495,252.333 L230.1493,252.333 Z M252.9712,252.333 L252.9712,338.337 C255.4183,339.137 257.9246,339.8994 260.4576,340.6514 C261.7716,341.0394 263.0742,341.42618 264.3912,341.8272 L264.3912,252.333 L252.9712,252.333 L252.9712,252.333 Z M275.7973,252.333 L275.7973,345.851 C279.7903,347.524 283.6431,349.5593 287.2233,352.2123 L287.2233,252.333 L275.7973,252.333 L275.7973,252.333 Z M298.6723,252.333 L298.6723,352.212 C302.2543,349.559 306.1083,347.51 310.0883,345.839 L310.0883,252.333 L298.6723,252.333 L298.6723,252.333 Z M344.3323,252.3327 L344.3323,333.659 C347.0253,332.207 349.5614,330.5103 351.8714,328.4383 C353.2824,327.1683 354.5663,325.7857 355.7503,324.2957 L355.7503,252.3327 L344.3323,252.3327 L344.3323,252.3327 Z M321.5003,252.3348 L321.5003,341.827 C322.8223,341.427 324.1261,341.04117 325.4261,340.6532 C327.9651,339.9002 330.4823,339.1378 332.9163,338.3388 L332.9163,252.3348 L321.5003,252.3348 L321.5003,252.3348 Z"/>
    <path fill="#0072AF" d="M98.7093,48.999 C92.7463,48.999 86.7833,51.2681 82.2443,55.8056 C73.1843,64.8956 73.1843,79.6526 82.2443,88.7396 C85.2633,91.7316 88.8867,93.7441 92.7263,94.7611 C95.2763,95.4271 97.9294,95.67151 100.5544,95.45251 C99.9544,92.95451 99.98938,90.32641 100.6384,87.83141 C101.3364,85.22641 102.6855,82.76551 104.7165,80.74351 C107.2835,78.17351 110.5311,76.68281 113.8571,76.27281 C116.4161,75.96781 119.026,76.27141 121.445,77.20445 C122.008,74.62245 122.12275,71.95915 121.78875,69.34115 C121.16275,64.39915 118.96055,59.61095 115.17155,55.80615 C110.63455,51.26865 104.67155,48.99955 98.70855,48.99955 L98.7093,48.999 Z M487.2193,48.99876 C481.2595,48.99876 475.3013,51.2681 470.7663,55.8056 C466.9673,59.6106 464.7633,64.3985 464.1433,69.3526 C463.81631,71.9596 463.92415,74.6241 464.48315,77.2061 C466.90115,76.2721 469.52325,75.9675 472.06325,76.27251 C475.40625,76.68351 478.64775,78.17321 481.20975,80.74321 C483.25275,82.76521 484.60305,85.22611 485.28205,87.83111 C485.93605,90.32611 485.9777,92.95421 485.37975,95.45221 C488.00375,95.67121 490.65105,95.42881 493.20005,94.76276 C497.05405,93.74576 500.67055,91.73136 503.68005,88.73936 C512.75605,79.65236 512.75605,64.89536 503.68005,55.80536 C499.13905,51.26786 493.17905,48.99876 487.21905,48.99876 L487.2193,48.99876 Z M98.7093,56.5967 C102.7205,56.5967 106.7313,58.1268 109.7913,61.1868 C111.9223,63.3178 113.3023,65.912 113.9573,68.636 C108.6283,69.063 103.4163,71.2916 99.3403,75.3626 C96.0613,78.6476 93.9729,82.6678 93.0629,86.8976 C91.0809,86.1336 89.2235,84.9595 87.6235,83.3585 C81.5105,77.2275 81.5105,67.3035 87.6235,61.1865 C90.6865,58.1265 94.6982,56.5967 98.7095,56.5967 L98.7093,56.5967 Z M487.2193,56.597 C491.2317,56.597 495.2433,58.1268 498.3013,61.1868 C504.4263,67.3038 504.4263,77.2298 498.3013,83.3608 C496.7003,84.9608 494.8468,86.1349 492.8638,86.8999 C491.9488,82.6699 489.8684,78.6478 486.5884,75.3629 C482.5194,71.2909 477.2951,69.0643 471.9774,68.6383 C472.6264,65.9133 474.0008,63.3181 476.1278,61.1871 C479.1933,58.1271 483.2072,56.597 487.2198,56.597 L487.2193,56.597 Z M273.6193,97.283 C272.2851,97.2952 270.7837,97.41164 269.0939,97.65214 C258.7519,99.11914 255.1589,104.11094 255.8259,108.82614 C256.7049,114.89514 263.0697,115.37914 265.5427,115.57414 L274.2907,116.20304 C276.6667,116.41005 277.473,117.23614 277.654,118.61714 C278.122,121.90014 273.8088,122.51764 272.9958,122.63864 C267.2958,123.45164 266.7245,120.13174 266.5075,118.96874 L256.8864,120.33594 C257.1194,121.57094 257.57413,124.41954 260.4391,126.39254 C264.0251,128.92554 269.8899,128.57634 273.4881,128.06834 C282.1561,126.84134 288.3471,122.99054 287.4291,116.51934 C286.5441,110.35034 280.9133,109.92694 276.1691,109.57594 L269.5129,109.07789 C268.0769,108.96889 265.8873,108.74119 265.5793,106.60719 C265.3423,104.87619 266.9244,103.30179 269.6984,102.91379 C274.2964,102.24479 274.6924,105.39699 274.8254,106.28099 L284.55,104.88649 C284.1195,102.18269 282.9579,97.19769 273.618,97.28299 L273.6193,97.283 Z M316.8143,98.13652 C313.8596,98.20422 311.0713,98.89402 308.5057,100.62092 C304.7377,103.16592 302.9697,106.94802 302.2967,110.90792 C301.7737,113.91492 301.6651,118.64042 304.8631,122.63792 C308.1051,126.66092 313.9273,128.15092 317.2731,128.71992 C321.7501,129.48292 332.8441,130.58642 334.4391,121.53442 L324.5231,119.85082 C324.1321,120.94282 323.088,123.93452 318.027,123.07352 C310.632,121.81252 311.8314,114.50922 312.1344,112.75152 C313.0374,107.45852 315.5627,103.31442 321.3297,104.29642 C324.0547,104.75641 326.2982,106.24552 326.2262,109.24952 L336.0524,110.91942 C336.18739,109.83242 336.58604,107.22702 334.234,104.26902 C331.927,101.39802 327.8824,99.55512 322.3,98.59712 C320.419,98.27912 318.5865,98.09553 316.8137,98.13618 L316.8143,98.13652 Z M247.3023,102.53882 L222.6983,111.60132 L232.8353,139.08132 L257.8023,129.87232 L255.8277,124.53052 L239.8507,130.41722 L237.6886,124.54222 L252.3916,119.12622 L250.4463,113.85282 L235.7433,119.26882 L233.6359,113.56372 L249.2469,107.79612 L247.3016,102.53832 L247.3023,102.53882 Z M352.5223,108.36112 C351.1221,108.34022 349.6927,108.48846 348.3055,108.88846 C342.7575,110.49946 340.0071,115.68556 339.1981,117.46656 C334.7161,127.43756 340.8482,134.92656 349.3171,138.72856 C356.9161,142.14556 367.3871,142.92116 372.1821,132.24616 C375.1181,125.71616 375.1315,116.48416 362.4145,110.78916 C360.661,109.99866 356.7224,108.42406 352.5219,108.36146 L352.5223,108.36112 Z M216.9723,113.98812 L190.4153,130.56412 L193.4954,135.49382 L202.5266,129.84932 L214.9756,149.82832 L223.2783,144.65642 L210.8073,124.67442 L220.0534,118.92052 L216.9714,113.98892 L216.9723,113.98812 Z M355.7423,115.13072 C356.9202,115.09782 358.2289,115.37025 359.6837,116.02525 C361.6287,116.89525 363.4954,118.27575 364.1134,120.33775 C364.5544,121.94775 364.78482,124.28615 363.0958,128.03115 C361.4318,131.73915 358.1717,136.14935 351.8498,133.31235 C345.9918,130.68435 346.3948,125.76555 348.3088,121.51135 C349.8583,118.06815 352.2088,115.22925 355.7424,115.13045 L355.7423,115.13072 Z M395.3713,131.25372 L366.0943,145.17572 L373.5709,151.31832 L379.1432,148.26562 L389.9502,157.13482 L388.0732,163.23052 L396.5244,170.17192 L404.4853,138.72892 L395.372,131.25432 L395.3713,131.25372 Z M395.88888,139.07982 L395.9924,139.17562 L391.6604,151.54862 L384.3245,145.53882 L395.8885,139.07982 L395.88888,139.07982 Z M178.14888,141.70882 L169.78948,150.04672 L180.76948,180.56772 L187.62108,173.73572 L185.13088,167.88222 L195.02928,158.00722 L200.91018,160.46622 L208.64648,152.74742 L178.14848,141.70842 L178.14888,141.70882 Z M292.93888,145.56432 C226.75588,145.56432 172.91888,199.39732 172.91888,265.59432 C172.91888,331.77432 226.75688,385.62432 292.93888,385.62432 C359.12488,385.62432 412.96888,331.77832 412.96888,265.59432 C412.96888,199.40232 359.12288,145.56432 292.93888,145.56432 Z M177.74888,150.20302 L189.62988,155.74012 L182.92478,162.45492 L177.64548,150.31192 L177.749,150.20254 L177.74888,150.20302 Z M292.93888,153.79092 C354.58188,153.79092 404.72888,203.95292 404.72888,265.59092 C404.72888,327.22992 354.57988,377.38092 292.93888,377.38092 C231.29588,377.38092 181.14888,327.23292 181.14888,265.59092 C181.14888,203.95392 231.30088,153.79092 292.93888,153.79092 Z M418.11888,157.88272 C416.54508,157.92212 415.12138,158.43936 413.91578,159.31432 C408.92778,162.90132 411.46678,168.77782 412.45878,171.04432 L415.96268,179.07552 C416.88968,181.27052 416.53818,182.37222 415.40018,183.17122 C412.70318,185.12422 410.15258,181.59802 409.67358,180.93102 C406.29958,176.26502 408.98295,174.20682 409.90795,173.47982 L404.21265,165.60092 C403.22765,166.37892 400.91285,168.10982 400.49785,171.56182 C399.93085,175.91082 402.96255,180.94012 405.09355,183.88382 C410.21955,190.98582 416.49455,194.67882 421.81055,190.85062 C426.84955,187.20362 424.61195,182.01922 422.71094,177.65762 L420.04684,171.52672 C419.48784,170.20572 418.65904,168.17052 420.41208,166.90952 C421.83308,165.89352 423.97128,166.55953 425.61128,168.82552 C428.32928,172.59352 425.73481,174.41062 425.00581,174.94462 L430.75581,182.89192 C433.26581,181.02792 437.96661,176.90702 429.97456,165.84492 C425.77256,160.02252 421.58156,157.79542 418.11956,157.88202 L418.11888,157.88272 Z M158.75888,162.13852 L142.10888,188.63662 L147.04248,191.72642 L152.69488,182.71272 L172.62488,195.23972 L177.83188,186.96432 L157.90388,174.43532 L163.68508,165.22832 L158.75928,162.13852 L158.75888,162.13852 Z M440.97888,183.19732 L435.64688,185.52382 L439.91838,195.27582 L418.35238,204.70552 L422.26648,213.67032 L443.83248,204.23092 L448.18988,214.20552 L453.52578,211.87932 L440.97878,183.19732 L440.97888,183.19732 Z M145.63888,193.283558 C142.57978,193.27462 138.67208,195.19262 135.25988,203.92962 C131.46288,213.65962 134.05068,219.24562 138.47868,220.97662 C144.19068,223.20462 147.75228,217.88722 149.12168,215.82822 L153.98108,208.53332 C155.32008,206.55632 156.43528,206.26652 157.72128,206.77552 C160.83428,207.98652 159.23898,212.04702 158.94398,212.79702 C156.84698,218.17802 153.67138,217.03852 152.55138,216.65052 L149.02598,225.71692 C150.20998,226.12792 152.91658,227.13182 156.04158,225.59582 C160.00958,223.71782 162.59658,218.43362 163.91858,215.06482 C167.09658,206.89682 166.78978,199.61782 160.70178,197.24282 C154.90278,194.97682 151.75768,199.66762 149.12178,203.62762 L145.43238,209.19992 C144.61138,210.38992 143.34868,212.17022 141.33668,211.39522 C139.71368,210.75122 139.11478,208.59492 140.12578,205.99092 C141.82178,201.65392 144.76058,202.85142 145.59058,203.17842 L149.15898,194.03192 C148.24492,193.69036 147.02998,193.28816 145.63948,193.283558 L145.63888,193.283558 Z M210.58388,197.97892 C210.58388,197.97892 220.72988,219.35392 220.72988,248.11792 C220.72988,249.58492 220.69548,250.97872 220.6205,252.33472 C219.8285,268.12372 214.8598,277.10072 216.1928,293.74872 C217.6428,312.11972 222.8849,323.09872 230.1458,330.22172 C233.5548,333.59272 237.421,336.08572 241.5538,338.09872 C245.2008,339.86872 249.0419,341.26192 252.9678,342.50692 C256.7418,343.71992 260.5767,344.80072 264.3878,345.97372 C268.2758,347.18672 272.129,348.51882 275.7938,350.17882 C279.8658,352.01882 283.7256,354.27212 287.2198,357.29012 C289.2518,359.04812 291.1581,361.05982 292.9151,363.38582 L292.9405,363.43462 L292.9639,363.38582 C294.7149,361.05982 296.632,359.04812 298.669,357.29012 C302.159,354.27112 306.019,352.01882 310.085,350.17882 C313.766,348.51882 317.6051,347.18672 321.497,345.97372 C325.291,344.80072 329.142,343.71992 332.913,342.50692 C336.844,341.26192 340.687,339.86772 344.329,338.09872 C348.456,336.08572 352.329,333.57872 355.747,330.22172 C362.999,323.09872 368.237,312.11972 369.696,293.74872 C371.022,277.10172 366.0495,268.12372 365.2565,252.33472 C365.1965,250.97872 365.1588,249.58492 365.1588,248.11792 C365.1588,219.35392 375.3048,197.97892 375.3048,197.97892 L210.58388,197.97892 L210.58388,197.97892 Z M445.56388,226.19592 C444.53898,226.15612 443.56568,226.21142 442.68688,226.33264 C438.05188,226.95164 433.74498,229.60424 431.55788,234.39124 C429.57088,238.76424 429.80068,244.01284 430.31568,247.74324 C431.01968,252.88124 432.32358,257.92124 434.02658,262.81724 L449.57158,260.69424 L447.33328,244.34024 L441.80788,245.10001 L442.82348,252.43201 L437.17508,253.2074 C436.65108,251.4754 436.20514,249.7186 435.96418,247.9496 C435.16918,242.1456 437.42988,237.2966 444.22788,236.3636 C449.09988,235.6966 454.26288,237.444 455.16388,244.012 C455.52688,246.64 455.06508,249.5849 452.11508,250.5159 L453.44708,260.2601 C454.85308,260.0161 457.25768,259.64013 459.12868,256.8421 C461.17668,253.7261 461.52278,249.148 460.79078,243.7211 C460.21978,239.5511 458.78278,233.6011 454.95878,229.9201 C452.17028,227.2913 448.63888,226.3149 445.56428,226.1955 L445.56388,226.19592 Z M138.96388,237.02792 C135.06548,237.11002 130.94358,238.49162 128.05988,242.84822 C125.75088,246.32622 125.02398,251.81362 124.76498,255.95722 L123.806,270.68922 L153.093,272.59352 L154.0637,257.76352 C154.2187,255.35052 154.49009,251.10902 153.58909,247.45152 C151.73309,240.26652 147.10649,237.47972 140.61609,237.06652 C140.07259,237.03012 139.52069,237.01572 138.96369,237.02742 L138.96388,237.02792 Z M138.31544,247.04192 C138.80744,247.01522 139.33024,247.01722 139.88574,247.05362 C146.69474,247.50162 148.74724,251.75562 148.36624,258.17662 L148.10061,262.33092 L130.00261,261.15712 L130.29558,257.35052 C130.47652,254.58112 130.93511,247.44312 138.31508,247.04152 L138.31544,247.04192 Z M224.59044,252.33672 L230.14704,252.33672 L241.55304,252.33672 L252.96904,252.33672 L264.38704,252.33672 L275.79304,252.33672 L287.22104,252.33672 L298.67004,252.33672 L310.08604,252.33672 L321.49804,252.33672 L332.91404,252.33672 L344.33004,252.33672 L355.74804,252.33672 L361.29494,252.33672 C361.62994,259.21982 362.70894,264.81582 363.75394,270.24282 C365.16094,277.43882 366.47824,284.22582 365.74224,293.43582 C364.65724,307.13882 361.44314,317.12282 355.74814,324.29682 C354.56414,325.78582 353.28024,327.16742 351.86924,328.43742 C349.55924,330.50842 347.02314,332.20612 344.33014,333.65812 C340.77014,335.56312 336.92314,337.01682 332.91414,338.33782 C330.47914,339.13782 327.96294,339.90022 325.42394,340.65222 C324.12394,341.04022 322.82014,341.42701 321.49814,341.82802 C317.65914,343.00302 313.81504,344.26272 310.08614,345.83972 C306.10614,347.51072 302.25214,349.55972 298.67014,352.21272 C296.66614,353.69172 294.75664,355.36122 292.94164,357.27522 C291.13464,355.36122 289.21494,353.69172 287.22094,352.21272 C283.64094,349.55972 279.78814,347.52442 275.79494,345.85142 C272.07494,344.26342 268.23074,343.00202 264.38894,341.82802 C263.07294,341.42803 261.77034,341.0422 260.45534,340.65422 C257.92234,339.90122 255.41604,339.13872 252.96904,338.33972 C248.95804,337.01972 245.10904,335.56602 241.55304,333.66002 C238.85704,332.20802 236.33304,330.51132 234.01204,328.43932 C232.61104,327.16932 231.32084,325.78672 230.14684,324.29672 C224.44584,317.12172 221.22714,307.13872 220.13284,293.43572 C219.40384,284.22572 220.72903,277.44072 222.12504,270.24272 C223.18404,264.81572 224.26684,259.21972 224.58984,252.33672 L224.59044,252.33672 Z M441.99044,266.86582 C437.25784,266.81512 431.31144,268.68912 429.78544,282.00882 C429.28844,286.38282 429.26594,292.65682 432.34794,296.41482 C434.24794,298.83582 437.69274,299.76962 440.93974,300.13362 L457.81874,302.07112 L458.88904,292.69412 L441.84204,290.74292 C438.94104,290.41492 434.87564,289.10742 435.56864,283.01442 C435.83864,280.66542 436.85724,278.48102 438.62724,277.36602 C439.94724,276.55302 441.57964,276.59027 443.15064,276.77227 L460.48864,278.74687 L461.59804,269.04567 L445.00404,267.09257 C444.11023,266.99297 443.08254,266.87772 441.99034,266.866 L441.99044,266.86582 Z M153.53044,274.65492 L147.91134,275.59828 L150.76094,292.39328 L144.58714,293.43628 L141.97194,277.98528 L136.44074,278.93059 L139.05794,294.36959 L133.04814,295.39689 L130.26104,278.99289 L124.72784,279.92453 L129.12434,305.78153 L157.97634,300.88703 L153.53104,274.65492 L153.53044,274.65492 Z M429.24044,299.33072 L425.57634,308.28792 L430.13294,312.72352 L424.83604,325.65352 L418.45904,325.66522 L414.31844,335.78222 L446.71344,334.13572 L451.19194,323.21572 L429.24094,299.33072 L429.24044,299.33072 Z M135.10044,307.03012 L129.64144,309.05162 L140.51644,338.40862 L145.97934,336.38712 L142.27034,326.40272 L164.34434,318.22502 L160.94784,309.05122 L138.87984,317.24062 L135.10054,307.02962 L135.10044,307.03012 Z M434.27044,316.86992 L443.84854,326.00472 L443.78994,326.14925 L430.68794,325.63948 L434.26994,316.86992 L434.27044,316.86992 Z M169.12044,328.57092 L143.46444,342.83292 L148.31214,351.53412 L173.96814,337.28412 L169.12044,328.57122 L169.12044,328.57092 Z M411.18044,339.75692 L405.18044,347.41122 L414.20774,354.47962 L411.70774,357.68862 C409.01174,361.10562 407.91024,360.42312 404.85224,358.58315 C402.59124,357.23815 400.69064,356.05225 398.92064,355.41125 L392.43824,363.67295 C394.58924,364.30495 397.38314,365.87765 399.15114,366.85065 C403.19314,369.01865 405.40444,370.26225 409.72314,365.03225 L409.84228,365.13185 C409.33828,365.97685 408.18168,367.76985 407.74068,370.25485 C407.39968,372.07185 407.53204,374.14315 410.05908,376.11615 C412.56008,378.08015 414.67058,378.00745 416.03958,377.72745 C418.72258,377.19745 420.44968,375.52725 424.32668,370.56925 L434.30128,357.85625 L411.18028,339.75625 L411.18044,339.75692 Z M175.06044,340.76272 L152.40444,359.42082 L157.78144,365.95012 L174.61144,351.97112 L165.22864,374.97912 L173.71494,385.29012 L196.37294,366.63012 L190.96274,360.06372 L173.41974,374.62572 L183.36114,350.84072 L175.06034,340.76272 L175.06044,340.76272 Z M418.37044,357.73782 L424.04424,362.18312 L421.80984,365.03272 C420.07584,367.24772 417.74264,370.21912 414.90164,367.97612 C414.16164,367.40612 412.98084,365.93882 413.85284,363.90382 C414.16084,363.10582 414.81705,362.27022 416.13604,360.59722 L418.37044,357.73782 L418.37044,357.73782 Z M387.95844,368.09682 L375.90344,376.79802 C373.95244,378.21402 370.49094,380.71062 368.25694,383.72962 C363.88994,389.73862 364.68994,395.06762 368.50694,400.33662 C371.05494,403.86662 375.01214,406.96532 380.95594,406.34832 C385.10994,405.90132 389.79484,402.96882 393.16894,400.53382 L405.13594,391.89512 L387.95794,368.09612 L387.95844,368.09682 Z M200.27844,372.52062 C199.66418,372.51362 199.05554,372.56132 198.45814,372.66906 C195.43014,373.15306 192.93814,375.71646 191.04014,378.36046 L181.12414,392.16146 L188.79014,397.66346 L198.79814,383.72946 C200.49314,381.34146 203.60864,378.41976 208.61064,382.00676 C210.52664,383.38876 211.93044,385.33876 212.03444,387.42476 C212.11444,388.97376 211.28371,390.37776 210.35674,391.67676 L200.18674,405.84076 L208.11834,411.54776 L217.90744,397.99876 C220.70744,394.10076 225.68834,387.07176 212.28834,377.44976 C209.16544,375.20276 204.57844,372.56646 200.27834,372.51995 L200.27844,372.52062 Z M383.22844,378.49122 L393.84344,393.19032 L390.70674,395.39542 C388.32074,397.12742 381.88664,401.75772 376.66974,394.54972 C372.67374,389.01172 374.66144,384.72162 379.84744,380.92872 L383.22834,378.49122 L383.22844,378.49122 Z M243.54844,395.51632 C240.79244,396.30233 238.74464,396.62172 236.62464,396.66872 L234.36484,402.82302 C236.04184,402.76202 237.86424,402.59316 239.39224,402.19216 L231.75354,422.99516 L241.10904,426.43656 L251.41204,398.41556 L243.54874,395.51716 L243.54844,395.51632 Z M335.86644,397.91472 C334.18174,397.88552 332.14664,398.12608 329.68284,398.81121 C326.54584,399.67221 322.29144,401.52711 320.11644,405.44011 C317.52544,409.99611 318.38014,415.20401 319.12815,417.94411 C319.92315,420.80411 321.90575,425.79531 326.68475,428.35211 C329.96075,430.12211 334.22135,430.01001 338.20075,428.89703 C349.24675,425.83203 351.21075,417.87303 348.91775,409.61803 C347.33875,403.90103 344.63675,401.12733 341.70875,399.47903 C340.50495,398.75903 338.67475,397.96323 335.86695,397.91453 L335.86644,397.91472 Z M255.47744,400.36392 L254.4833,406.36002 L272.5243,409.32872 L254.0593,430.26772 L265.4133,432.13292 L282.5583,410.92792 L283.54072,404.99242 L255.47872,400.36352 L255.47744,400.36392 Z M300.78944,403.52602 C300.24501,403.52002 299.67764,403.53202 299.08434,403.56122 C290.06434,403.98422 284.39834,408.56372 284.68834,414.62322 C284.80934,417.32522 286.12654,419.67582 288.26454,421.34582 C290.24554,422.83582 292.73054,423.83072 297.51454,423.60172 C301.84854,423.40972 304.05444,421.91832 305.72544,420.16032 C305.87744,425.49032 305.39775,429.30862 299.92074,429.56262 C297.03774,429.71062 295.16994,428.50932 295.03794,426.82632 L285.54964,427.28531 C285.71364,428.53031 285.96662,430.54321 288.00864,432.16621 C291.11864,434.58921 295.33374,435.17031 299.92064,434.95331 C304.35464,434.73631 308.96324,433.78961 312.14564,430.10761 C315.13364,426.65161 315.64794,422.09811 315.46594,418.66961 C315.32494,415.56761 314.65709,412.49821 313.08504,409.72621 C311.76034,407.40871 308.95664,403.61081 300.79004,403.52501 L300.78944,403.52602 Z M333.50644,403.97524 C335.25084,404.1139 336.11674,405.23644 336.58844,405.93614 C337.87344,407.87414 338.95894,411.18234 339.35794,412.63734 C339.53994,413.26534 340.85894,418.02634 339.98099,420.68034 C339.53999,421.95234 338.17249,423.00704 336.62749,423.44404 C332.55049,424.57204 330.62239,421.49324 328.92439,415.35024 C326.50939,406.65124 328.66073,404.97824 331.45169,404.21724 C332.24594,403.99249 332.92489,403.92883 333.50639,403.97505 L333.50644,403.97524 Z M300.07644,408.99864 C303.83944,409.14452 305.01334,411.62074 305.09204,413.47324 C305.22104,416.13924 303.51974,418.19824 299.64674,418.39124 C295.57574,418.57325 294.06044,416.15144 293.95144,413.92254 C293.82544,411.33954 295.48434,409.19764 299.28734,409.00064 C299.56165,408.98874 299.82554,408.98894 300.0764,408.99864 L300.07644,408.99864 Z"/>
  </g>
</svg>
