<svg xmlns="http://www.w3.org/2000/svg" viewBox="0 0 270 268">
  <g fill="none">
    <path fill="#AA2531" d="M133.926119,71.1811596 C133.385615,71.5697768 132.782764,71.8880618 132.215647,72.2438442 C129.482832,73.9589967 128.416685,76.3935355 129.047181,79.5434694 C129.352936,81.0720404 129.68567,82.5956226 130.012409,84.1202026 C130.563968,86.694428 131.554176,89.2686533 131.54918,91.8408832 C131.543185,94.266442 132.380515,95.8019974 134.12512,97.1729221 C135.717846,98.4251131 137.255616,99.7461497 138.78839,101.013307 C138.478638,101.677816 138.237831,102.196653 137.956056,102.801296 C139.909494,103.525671 139.644705,104.929522 139.285992,106.439136 C138.769016,108.619969 138.323848,110.816738 137.852811,113.008082 L137.004409,113.620331 C136.87316,113.339916 136.756125,113.084338 136.652099,112.823813 C134.786591,108.133335 132.903097,103.450839 131.088548,98.7414036 C131.088548,98.7384103 131.088548,98.735417 131.088548,98.731426 C131.12352,97.7107157 130.814767,97.2208147 129.994423,96.8905555 C127.949059,96.0683998 125.857732,95.3450225 123.863327,94.4161063 C123.067963,94.0449389 122.248618,93.3584788 121.838946,92.6011777 C120.777794,90.6385803 119.22004,89.5071184 117.079752,89.0980361 C116.18147,88.9274188 115.245219,88.901477 114.383908,88.6280903 C113.946258,88.4884036 113.304771,87.929657 113.322757,87.5914158 C113.419679,85.8213864 113.214843,83.9575674 115.045379,82.6894122 C116.385307,81.760496 116.717042,79.9485606 115.803772,79.0146556 C114.855531,78.0438334 114.758608,77.0061612 114.838544,75.7719299 C115.095339,71.8028335 113.594539,69.4690688 109.912484,67.9953746 C109.214042,67.7160013 108.481628,67.5214378 107.761204,67.2999347 C106.070557,66.7810986 104.437862,66.9018277 102.970036,67.9265291 C99.382905,70.4319089 97.6992515,72.9881745 98.7663981,77.3304338 C98.950251,78.074764 99.0541679,79.0106646 98.7634005,79.6681896 C97.8291476,81.7834445 97.9020893,82.5517211 99.5317859,84.3526811 C100.363121,85.2706219 100.705847,86.5287995 99.810563,87.393859 C98.6025291,88.562238 98.3996913,89.7904827 98.5465739,91.3260381 C98.736422,93.2936243 98.3727129,93.6238835 96.2973727,93.6278745 C95.4580439,93.6288723 95.0993308,93.9351851 94.6217128,94.6864998 C93.8143585,95.9576483 92.7861808,97.3026311 91.5131988,98.0190241 C88.6534859,99.627416 86.5881377,101.79655 85.2921741,104.767885 C85.0703516,105.277741 84.7546041,105.746689 84.4818222,106.234594 C84.3429333,106.214639 84.2050436,106.195682 84.0661547,106.175727 C83.9752274,105.645915 83.9672338,105.08218 83.7673936,104.597267 C83.565555,104.10138 83.1059226,103.259269 82.8781048,103.296186 C81.2104385,103.569573 80.789775,102.281462 80.1063216,101.305651 C79.024187,99.7621139 77.9420524,98.2195742 76.8769043,96.6650613 C76.6390945,96.318838 76.2224277,95.8468967 76.3093582,95.5635324 C77.0257852,93.2437362 75.5689504,94.2514756 74.4798214,94.5617795 C73.8803009,93.3973915 73.31875,92.2529588 72.7092374,91.1334701 C71.4822187,88.8815218 71.1854561,88.8086852 69.0621542,90.1007867 C68.8393324,90.2354845 68.598525,90.3402495 68.210835,90.5388041 C66.772985,88.6929448 65.4210662,86.8211437 63.9222649,85.0740629 C62.4294587,83.3319708 61.0745423,81.630787 62.1626721,79.1573356 C62.2046385,79.0625482 62.2056377,78.9448123 62.2046385,78.8380518 C62.1856537,77.8592475 61.7500021,77.4022726 60.7667885,77.7993818 C60.0193862,78.1007058 59.3329352,78.5916046 58.5665481,78.7881637 C58.0749413,78.9148794 57.3215438,78.8480294 56.9718235,78.5417165 C56.0865315,77.7694489 55.4140693,76.755723 54.5487614,75.9565158 C54.169065,75.6053037 53.5245805,75.5384536 53,75.3418945 C53.1368905,75.8517508 53.173861,76.4194773 53.4286572,76.8614857 C54.2569947,78.2972649 56.0985219,79.2441408 55.3950845,81.3344517 C57.3824951,81.3424338 58.416668,82.5676853 57.6462841,84.194037 C56.6990417,86.1935516 56.7320153,88.0414064 57.486412,90.0459098 C57.7991618,90.8770453 57.954038,91.8728116 57.8321355,92.7448553 C57.3964839,95.8409101 58.7284187,98.0808853 60.9326558,100.047474 C61.7450061,100.773844 62.3445267,101.737682 63.2537995,102.855175 C61.5201859,103.603497 60.1223039,104.25304 58.6894498,104.815777 C55.924661,105.901342 55.7757801,106.248563 57.1586741,108.874672 C57.3085542,109.16103 57.4784184,109.435414 57.6392897,109.715785 C58.2108326,110.711552 58.9442461,111.002898 60.0663486,110.496035 C62.1766609,109.54417 64.4028805,108.824784 66.4512423,107.760172 C68.1418902,106.88314 68.7883732,108.012606 69.6426899,108.947509 C70.5739451,109.968219 69.782578,110.410227 69.0221862,110.934052 C68.8203476,111.073739 68.7653915,111.50577 68.7444083,111.812083 C68.6804595,112.714059 68.7354155,113.628009 68.6205074,114.522004 C68.3147519,116.894681 70.7298205,119.72134 73.0599569,120.022664 C74.2560004,120.17632 75.6728672,120.660234 76.4622359,121.493365 C78.0569606,123.175592 79.7675925,125.015464 78.6275043,127.771282 C78.4216689,128.269165 78.601525,128.94465 78.6614771,129.531334 C78.8783037,131.671533 79.2370168,133.805745 79.3129561,135.948938 C79.3689113,137.520413 79.0601582,139.102863 78.9322605,140.681322 C78.9092789,140.972668 78.8593189,141.421661 79.0171926,141.543388 C80.8337398,142.941252 80.6319012,145.09542 81.0255864,146.982187 C81.2733882,148.165533 81.735019,148.378056 83.0759466,147.977954 C80.5939316,141.977414 83.3916941,136.629411 84.7276256,130.833413 C85.9896164,131.569761 86.9168748,132.10955 88.0549646,132.775058 C87.5203921,133.078377 87.3065631,133.286909 87.0677541,133.321831 C85.3751078,133.56728 84.9064826,134.719695 85.2891765,136.113568 C86.1634773,139.303413 87.1436934,142.469311 88.2448128,145.586319 C88.4296649,146.112139 89.4358602,146.347611 90.0633584,146.717781 C90.1812641,146.606031 90.300169,146.493284 90.4190739,146.381535 C90.4948884,146.670925 90.572176,146.959637 90.6440333,147.247908 L37.4337195,186 L60.7632579,114.893797 L0,71.0461886 L74.9857256,71.209228 L98.0005012,0 L121.017282,71.209228 L133.926119,71.1811596 Z M143.516658,71.1603063 L196,71.0461886 L155.209105,100.48292 C152.406686,99.8452976 149.641947,99.0392187 146.854939,98.3303257 C146.523204,98.245516 146.16649,98.2574891 145.810774,98.2225675 C145.660838,101.382149 145.513208,104.493395 145.366215,107.586038 L143.330247,109.055293 C142.7848,107.405333 142.070901,105.829881 140.693866,104.550373 C140.516009,104.384744 140.503019,103.674338 140.633914,103.598508 C142.170685,102.708504 141.407296,101.799543 140.618926,100.936479 C142.600342,98.8222223 144.471845,96.7738174 143.675482,93.6228857 C143.603539,93.3405191 143.757416,92.989307 143.845346,92.6809986 C144.762612,89.4761878 145.738832,86.2863434 146.593148,83.0655684 C147.057777,81.3174898 147.717249,79.4915858 147.60434,77.7445049 C147.40546,74.6480558 145.819208,72.5763453 143.516658,71.1603063 Z M65.7318177,100.59724 C64.6636719,100.304896 63.5485637,100.016543 63.0999225,98.4630281 C62.550362,96.5652852 61.2823761,94.8860521 60.4500418,93.056157 C59.83953,91.7131697 59.4278593,90.2783883 58.9272596,88.8845151 C59.0991222,88.8116784 59.2719839,88.7398396 59.4438465,88.6660052 C62.4394507,91.5565211 63.5255821,96.1701715 67.8551195,97.868362 C67.6612746,98.291413 67.534376,98.5747774 67.4014823,98.8551484 C67.0327772,99.6353981 66.9668299,100.936479 65.7318177,100.59724 Z M79.5008058,114.700603 C80.0643551,115.539721 80.6279044,116.379836 81.1904545,117.218954 C79.5457699,117.184032 79.3089593,116.083501 79.069151,114.987959 C79.213036,114.892173 79.3569209,114.796388 79.5008058,114.700603 Z M83.4276653,109.475325 C84.2530052,111.426947 85.0054035,113.205956 85.7568026,114.984965 C85.55996,115.066782 85.3631174,115.149596 85.1662748,115.231412 C83.7653952,113.55617 82.3645156,111.878933 80.7188317,109.909351 C82.0677529,109.693835 82.8361384,109.57111 83.4276653,109.475325 Z M81.1504865,133.571271 C81.1504865,131.640602 81.1504865,129.896515 81.1504865,127.985801 C83.1548835,129.266927 83.1508867,131.126755 81.1504865,133.571271 Z"/>
    <path fill="#262652" d="M150.602152,217.024991 C151.569657,212.30304 152.440795,207.566008 152.762215,202.730131 C152.869129,201.128723 153.16789,199.540286 153.361735,197.94287 C153.476643,196.993001 153.976244,196.74356 154.811576,197.129694 C155.346148,197.377139 155.884717,197.635559 156.372327,197.961827 C158.611537,199.461463 160.849747,200.959104 163.046989,202.512619 C164.165095,203.302846 165.067373,203.448519 166.427286,202.750086 C167.400508,202.24921 168.853346,202.605411 170.082363,202.701196 C170.56098,202.738113 171.013618,203.110278 171.977847,203.56426 C171.977847,201.046907 172.033802,198.904712 171.967855,196.767507 C171.757023,190.100462 171.479246,183.435414 171.271412,176.76837 C171.163498,173.437841 171.040596,173.229309 167.811179,172.414137 C165.336159,171.789538 165.024408,171.07115 165.512018,168.603685 C165.944672,166.411602 166.210459,164.155663 166.24743,161.92367 C166.2844,159.672719 166.064576,157.400816 165.755823,155.165829 C165.061378,150.113164 164.289995,145.069478 163.460658,140.03577 C162.465454,133.993325 161.05858,127.997774 160.42009,121.920407 C159.84455,116.433715 160.043391,110.864209 159.938475,105.330622 C159.883519,102.429131 158.822368,101.259754 156.05658,100.670077 C152.963054,100.008561 149.922486,99.1105754 146.854939,98.3303257 C146.523204,98.245516 146.16649,98.2574891 145.810774,98.2225675 C145.568967,103.318137 145.333156,108.287988 145.096345,113.256842 C144.944467,113.24886 144.792588,113.238882 144.637712,113.229902 C143.51561,110.253579 143.224842,106.902097 140.693866,104.550373 C140.516009,104.384744 140.503019,103.674338 140.633914,103.598508 C142.170685,102.708504 141.407296,101.799543 140.618926,100.936479 C142.600342,98.8222223 144.471845,96.7738174 143.675482,93.6228857 C143.603539,93.3405191 143.757416,92.989307 143.845346,92.6809986 C144.762612,89.4761878 145.738832,86.2863434 146.593148,83.0655684 C147.057777,81.3174898 147.717249,79.4915858 147.60434,77.7445049 C147.332557,73.5129972 144.469846,71.1951966 140.728838,69.849216 C138.471644,69.0370379 136.299381,69.1298298 134.369924,70.8300158 C133.731435,71.3917557 132.944064,71.7868694 132.215647,72.2438442 C129.482832,73.9589967 128.416685,76.3935355 129.047181,79.5434694 C129.352936,81.0720404 129.68567,82.5956226 130.012409,84.1202026 C130.563968,86.694428 131.554176,89.2686533 131.54918,91.8408832 C131.543185,94.266442 132.380515,95.8019974 134.12512,97.1729221 C135.717846,98.4251131 137.255616,99.7461497 138.78839,101.013307 C138.478638,101.677816 138.237831,102.196653 137.956056,102.801296 C139.909494,103.525671 139.644705,104.929522 139.285992,106.439136 C138.707455,108.879661 138.218846,111.340141 137.683274,113.790644 C137.653298,113.925342 137.537391,114.040085 137.345544,114.352384 C137.067766,113.74375 136.838949,113.291763 136.652099,112.823813 C134.786591,108.133335 132.903097,103.450839 131.088548,98.7414036 C131.088548,98.7384103 131.088548,98.735417 131.088548,98.731426 C131.12352,97.7107157 130.814767,97.2208147 129.994423,96.8905555 C127.949059,96.0683998 125.857732,95.3450225 123.863327,94.4161063 C123.067963,94.0449389 122.248618,93.3584788 121.838946,92.6011777 C121.061692,91.1636476 120.018009,90.1720235 118.67413,89.5835678 L140.5,22 L170.914516,116.18131 L270,115.964542 L189.707159,173.956542 L220.534777,268 L150.602152,217.024991 Z M119.407666,225.03591 L60.4652231,268 L90.0482444,177.750409 C90.4052884,179.002983 90.7785837,180.251988 91.1095217,181.511729 C91.190457,181.818042 90.9706328,182.222135 90.8417359,182.562372 C90.2392177,184.151807 89.2969713,185.690355 89.0731503,187.32868 C88.5865395,190.889692 88.4506481,194.498596 88.2058439,198.090539 C88.1758679,198.531549 88.3567233,198.986529 88.4396569,199.435521 C88.5965315,199.429535 88.7544052,199.422551 88.9122789,199.415566 C89.3918954,194.895705 89.4998091,190.299017 91.4032867,185.817071 C91.693055,186.222162 91.9098816,186.401759 91.9658368,186.623263 C92.8581232,190.095474 94.2020484,193.421014 94.3968926,197.109739 C94.5797464,200.57297 95.4650383,203.996291 95.995614,207.444555 C96.2084438,208.832442 96.2923767,210.244275 98.0859423,210.74116 C96.5641593,212.534138 96.642097,214.295188 97.5763498,216.13506 C97.7232323,216.424411 97.7502108,216.944245 97.5853426,217.193685 C96.7370211,218.473814 95.8157579,219.70605 94.901489,220.941279 C94.4978119,221.487054 93.8193545,221.93904 93.6584831,222.537698 C92.7691944,225.864235 90.5179948,227.947562 87.6353002,229.548969 C86.7020466,230.067806 85.7338209,230.626552 85.0034051,231.382856 C83.5225894,232.91442 83.6035247,234.188562 85.4580415,235.158386 C86.659081,235.785978 88.2647968,236.147168 89.5827427,235.942627 C92.4374597,235.497625 95.1922565,234.619595 97.602329,232.801673 C98.3647193,232.226962 99.6556868,232.308779 100.715839,232.188049 C101.115519,232.14315 101.564161,232.505338 101.962842,232.456447 C106.702051,231.877745 108.507607,231.793933 107.174673,226.240391 C106.347335,222.792127 105.770796,219.283996 106.563163,215.710014 C106.814961,214.575559 107.298574,213.29543 106.997815,212.281704 C106.55417,210.786059 107.207647,210.09461 108.233826,209.55083 C110.216241,208.500187 110.831749,206.85388 110.35513,204.823435 C109.993419,203.282891 109.357927,201.802212 108.811365,200.307565 C108.630509,199.811678 108.114922,199.334748 108.151892,198.879768 C108.330749,196.62782 108.076952,194.480637 107.712244,192.230684 C107.326552,189.851022 108.099934,187.230899 108.645497,184.777403 C108.926273,183.516232 109.109126,182.466587 108.557568,181.222378 C108.099934,180.189695 108.044977,178.978412 107.811164,177.84695 C107.982028,177.803049 108.152891,177.759147 108.322755,177.715245 C108.457647,177.919787 108.655489,178.107366 108.715441,178.33286 C109.653691,181.857952 110.781789,185.350119 111.445258,188.927095 C112.248616,193.25339 112.360526,197.719371 113.317761,202.002763 C114.197057,205.937935 115.701854,209.81823 115.167281,213.861161 C114.638704,217.86019 116.13151,220.16502 119.211047,221.517985 C119.223049,222.698882 119.289639,223.871261 119.407666,225.03591 Z M88.1773567,171.707059 L11,115.964542 L68.7742983,116.090935 C69.3527302,117.996673 71.2324646,119.78634 73.0599569,120.022664 C74.2560004,120.17632 75.6728672,120.660234 76.4622359,121.493365 C78.0569606,123.175592 79.7675925,125.015464 78.6275043,127.771282 C78.4216689,128.269165 78.601525,128.94465 78.6614771,129.531334 C78.8783037,131.671533 79.2370168,133.805745 79.3129561,135.948938 C79.3689113,137.520413 79.0601582,139.102863 78.9322605,140.681322 C78.9092789,140.972668 78.8593189,141.421661 79.0171926,141.543388 C80.8337398,142.941252 80.6319012,145.09542 81.0255864,146.982187 C81.2733882,148.165533 81.735019,148.378056 83.0759466,147.977954 C80.5939316,141.977414 83.3916941,136.629411 84.7276256,130.833413 C85.9896164,131.569761 86.9168748,132.10955 88.0549646,132.775058 C87.5203921,133.078377 87.3065631,133.286909 87.0677541,133.321831 C85.3751078,133.56728 84.9064826,134.719695 85.2891765,136.113568 C86.1634773,139.303413 87.1436934,142.469311 88.2448128,145.586319 C88.4296649,146.112139 89.4358602,146.347611 90.0633584,146.717781 C90.1812641,146.606031 90.300169,146.493284 90.4190739,146.381535 C90.9146775,148.273291 91.4732308,150.136112 90.1662761,152.035851 C89.8265478,152.528745 89.7356205,153.317975 89.8045653,153.93958 C90.0193935,155.864263 90.5020076,157.765997 90.6269077,159.691677 C90.7757886,161.997504 90.7468118,164.325283 90.6179149,166.634103 C90.5719516,167.448277 90.2022473,168.435063 89.633702,168.989819 C88.8110438,169.793548 88.4058239,170.692073 88.1773567,171.707059 Z M79.388893,116.114157 L80.451131,116.116481 C80.6977078,116.484052 80.9441769,116.851598 81.1904545,117.218954 C80.1327382,117.196495 79.6573086,116.733308 79.388893,116.114157 Z M81.1504865,133.571271 C81.1504865,131.640602 81.1504865,129.896515 81.1504865,127.985801 C83.1548835,129.266927 83.1508867,131.126755 81.1504865,133.571271 Z M157.297587,159.545006 C158.314774,160.616602 159.330961,161.689196 160.593951,163.018215 C158.864334,162.918438 158.808379,163.813431 158.904302,164.909971 C158.989234,165.902744 158.921289,166.908488 158.921289,167.908245 C158.749426,167.996048 158.577564,168.083851 158.4067,168.171654 C158.095949,167.831417 157.559378,167.51812 157.514414,167.144957 C157.203663,164.634589 157.000825,162.111249 156.761017,159.592898 C156.940873,159.575937 157.117731,159.56097 157.297587,159.545006 Z"/>
  </g>
</svg>
