<svg xmlns="http://www.w3.org/2000/svg" viewBox="0 0 790 268">
  <g fill="none">
    <g transform="translate(320 86)">
      <g fill="#AA2531" transform="translate(58 61)">
        <polyline points="336.513 34 332 34 332 0 335.794 0 344.437 20.576 344.437 0 349 0 349 34 345.158 34 336.513 13.425 336.513 34"/>
        <path d="M302.999511,4.38299353 C302.663389,4.38299353 302.290137,4.41356109 301.879756,4.47469621 C301.468397,4.53681738 301.063878,4.72811113 300.668153,5.05153563 C300.27145,5.37496012 299.944122,5.89756678 299.685191,6.61935559 C299.42626,7.3431165 299.296305,8.36565065 299.296305,9.68794409 L299.296305,24.3120559 C299.296305,25.665903 299.42626,26.7042139 299.685191,27.4260027 C299.944122,28.1487776 300.27145,28.6723703 300.668153,28.9948087 C301.063878,29.3172472 301.468397,29.509527 301.879756,29.5716482 C302.290137,29.6327833 302.663389,29.6643369 302.999511,29.6643369 C303.304366,29.6643369 303.669802,29.6327833 304.096794,29.5716482 C304.523786,29.509527 304.934168,29.3172472 305.33087,28.9948087 C305.726595,28.6723703 306.054901,28.1487776 306.313832,27.4260027 C306.571786,26.7042139 306.702718,25.665903 306.702718,24.3120559 L306.702718,9.68794409 C306.702718,8.36565065 306.571786,7.3431165 306.313832,6.61935559 C306.054901,5.89756678 305.726595,5.37496012 305.33087,5.05153563 C304.934168,4.72811113 304.523786,4.53681738 304.096794,4.47469621 C303.669802,4.41356109 303.304366,4.38299353 302.999511,4.38299353 Z M302.999511,34 C301.384366,34 300.08971,33.7081291 299.113588,33.1234013 C298.137466,32.5396595 297.406595,31.9401409 296.919023,31.3238595 C295.64,29.6643369 295,27.3264116 295,24.3120559 L295,9.68794409 C295,6.67358835 295.64,4.33664917 296.919023,2.67515443 C297.162321,2.36849279 297.460336,2.05985905 297.810137,1.75319741 C298.160916,1.44554972 298.587908,1.16058119 299.091115,0.899277863 C299.594321,0.637974537 300.165924,0.423015574 300.804947,0.253414924 C301.444947,0.0857863751 302.176794,0 302.999511,0 C304.645924,0 305.948397,0.291870885 306.907908,0.875612656 C307.86742,1.46132653 308.592427,2.05985905 309.08,2.67515443 C310.359023,4.33664917 311,6.67358835 311,9.68794409 L311,24.3120559 C311,27.3264116 310.359023,29.6643369 309.08,31.3238595 C308.592427,31.9401409 307.86742,32.5396595 306.907908,33.1234013 C305.948397,33.7081291 304.645924,34 302.999511,34 L302.999511,34 Z"/>
        <polygon points="268 35 272 35 272 1 268 1"/>
        <polyline points="246 4.383 238.279 4.383 238.279 34 233.721 34 233.721 4.383 226 4.383 226 0 246 0 246 4.383"/>
        <path d="M196.976422,12.8105678 L194.962071,21.1601995 L198.989749,21.1601995 L196.976422,12.8105678 Z M191.651973,35 L187,35 L195.153767,1 L198.750897,1 L207,35 L202.299846,35 L200.045618,25.4967229 L193.906202,25.4967229 L191.651973,35 L191.651973,35 Z M154.503264,30.6634766 L157.041597,30.6634766 C157.617049,30.6634766 158.167925,30.6102314 158.695252,30.501769 C159.221554,30.3942927 159.684372,30.1566614 160.084731,29.7869033 C160.483041,29.4181312 160.8107,28.863987 161.066684,28.1264428 C161.321643,27.3879125 161.449635,26.3890726 161.449635,25.1269648 L161.449635,10.8266922 C161.449635,9.56557044 161.321643,8.56574445 161.066684,7.82820022 C160.8107,7.08966997 160.483041,6.5365118 160.084731,6.16773969 C159.684372,5.79896758 159.221554,5.56725248 158.695252,5.47555246 C158.167925,5.38286642 157.617049,5.33750943 157.041597,5.33750943 L154.503264,5.33750943 L154.503264,30.6634766 Z M157.041597,35 L150,35 L150,1 L157.041597,1 C160.075515,1 162.359913,1.90812598 163.892743,3.72240589 C165.297581,5.35328577 166,7.72072386 166,10.8266922 L166,25.1269648 C166,28.2349052 165.297581,30.6181196 163.892743,32.2775941 C162.359913,34.09286 160.075515,35 157.041597,35 L157.041597,35 Z"/>
        <polyline points="115.514 34 111 34 111 0 114.795 0 123.438 20.576 123.438 0 128 0 128 34 124.158 34 115.514 13.425 115.514 34"/>
        <path d="M81.5,34 C79.984456,34 78.7729922,33.7317943 77.8636658,33.1934109 C76.9543394,32.6550274 76.2733161,32.078188 75.8186528,31.4628926 C74.6062176,29.9562078 74,27.7878832 74,24.9579189 L74,0 L78.2726684,0 L78.2726684,24.9579189 C78.2726684,26.1273745 78.3863342,27.0345408 78.6136658,27.6804037 C78.8409974,28.3252806 79.1207902,28.7956266 79.4540155,29.0874975 C79.7872409,29.3793683 80.1360104,29.5479829 80.5003238,29.5943273 C80.8636658,29.6406717 81.1968912,29.6643369 81.5,29.6643369 C81.8021373,29.6643369 82.1363342,29.6406717 82.4996762,29.5943273 C82.8639896,29.5479829 83.2117876,29.3793683 83.545013,29.0874975 C83.8782383,28.7956266 84.1590026,28.3252806 84.3863342,27.6804037 C84.6126943,27.0345408 84.7273316,26.1273745 84.7273316,24.9579189 L84.7273316,0 L89,0 L89,24.9579189 C89,27.7878832 88.3928109,29.9562078 87.1813472,31.4628926 C86.7266839,32.078188 86.0456606,32.6550274 85.1363342,33.1934109 C84.2270078,33.7317943 83.0145725,34 81.5,34 L81.5,34 Z M43.9995115,4.38299353 C43.6633893,4.38299353 43.2911145,4.41356109 42.8797557,4.47469621 C42.4683969,4.53681738 42.0638779,4.72811113 41.6681527,5.05153563 C41.2724275,5.37496012 40.9441221,5.89756678 40.6851908,6.61935559 C40.4262595,7.3431165 40.2972824,8.36565065 40.2972824,9.68794409 L40.2972824,24.3120559 C40.2972824,25.665903 40.4262595,26.7042139 40.6851908,27.4260027 C40.9441221,28.1487776 41.2724275,28.6723703 41.6681527,28.9948087 C42.0638779,29.3172472 42.4683969,29.509527 42.8797557,29.5716482 C43.2911145,29.6327833 43.6633893,29.6643369 43.9995115,29.6643369 C44.3043664,29.6643369 44.6698015,29.6327833 45.0967939,29.5716482 C45.5237863,29.509527 45.935145,29.3172472 46.3308702,28.9948087 C46.7265954,28.6723703 47.0549008,28.1487776 47.3138321,27.4260027 C47.5727634,26.7042139 47.7027176,25.665903 47.7027176,24.3120559 L47.7027176,9.68794409 C47.7027176,8.36565065 47.5727634,7.3431165 47.3138321,6.61935559 C47.0549008,5.89756678 46.7265954,5.37496012 46.3308702,5.05153563 C45.935145,4.72811113 45.5237863,4.53681738 45.0967939,4.47469621 C44.6698015,4.41356109 44.3043664,4.38299353 43.9995115,4.38299353 Z M43.9995115,34 C42.3843664,34 41.0887328,33.7081291 40.1145649,33.1234013 C39.1384427,32.5396595 38.4065954,31.9401409 37.9190229,31.3238595 C36.6390229,29.6643369 36,27.3264116 36,24.3120559 L36,9.68794409 C36,6.67358835 36.6390229,4.33664917 37.9190229,2.67515443 C38.1632977,2.36849279 38.4603359,2.05985905 38.8111145,1.75319741 C39.160916,1.44554972 39.5879084,1.16058119 40.0911145,0.899277863 C40.5943206,0.637974537 41.1649466,0.423015574 41.8049466,0.253414924 C42.4449466,0.0857863751 43.1767939,0 43.9995115,0 C45.6459237,0 46.9483969,0.291870885 47.9088855,0.875612656 C48.8683969,1.46132653 49.5914504,2.05985905 50.08,2.67515443 C51.36,4.33664917 52,6.67358835 52,9.68794409 L52,24.3120559 C52,27.3264116 51.36,29.6643369 50.08,31.3238595 C49.5914504,31.9401409 48.8683969,32.5396595 47.9088855,33.1234013 C46.9483969,33.7081291 45.6459237,34 43.9995115,34 L43.9995115,34 Z"/>
        <polyline points="4.315 5.338 4.315 15.809 14 15.809 14 20.145 4.315 20.145 4.315 35 0 35 0 1 14 1 14 5.338 4.315 5.338"/>
      </g>
      <g fill="#262652" transform="translate(400)">
        <path d="M55.1590818,6.57086061 L55.1590818,39.4281455 L59.1954177,39.4281455 C61.4734864,39.4281455 62.8399338,38.2443767 62.8399338,34.9594434 L62.8399338,11.0395627 C62.8399338,7.75264147 61.4734864,6.57086061 59.1954177,6.57086061 L55.1590818,6.57086061 Z M48,0 L59.3243836,0 C66.4854343,0 70,4.00751928 70,11.367559 L70,34.6304531 C70,41.9914868 66.4854343,46 59.3243836,46 L48,46 L48,0 L48,0 Z"/>
        <polygon points="32 46 39 46 39 0 32 0"/>
        <path d="M8.70099002,31.411119 L15.5839947,31.411119 L12.1424923,8.14723105 L8.70099002,31.411119 Z M25,46 L17.7918991,46 L16.5583012,37.6529893 L7.79150625,37.6529893 L6.55790838,46 L0,46 L7.27194154,0 L17.7270763,0 L25,46 L25,46 Z"/>
      </g>
      <g fill="#262652" transform="translate(294 3)">
        <path d="M72.754724,6.28485456 L72.754724,19.8004012 L75.3942985,19.8004012 C77.9113983,19.8004012 79.4477208,18.668004 79.4477208,15.1474423 L79.4477208,10.8114343 C79.4477208,7.66800401 78.4032567,6.28485456 76.0086315,6.28485456 L72.754724,6.28485456 Z M80.1218215,44 C79.7534176,42.8676028 79.5084682,42.1765296 79.5084682,38.5927783 L79.5084682,31.6800401 C79.5084682,27.5927783 78.1573275,26.0852558 75.0866421,26.0852558 L72.754724,26.0852558 L72.754724,44 L66,44 L66,0 L76.1918537,0 C83.1925069,0 86.2004852,3.33099298 86.2004852,10.1203611 L86.2004852,13.5767302 C86.2004852,18.1023069 84.788597,21.0571715 81.7796389,22.5015045 C85.1570009,23.9478435 86.2631923,27.2798395 86.2631923,31.8676028 L86.2631923,38.6569709 C86.2631923,40.7933801 86.3239397,42.3650953 87,44 L80.1218215,44 L80.1218215,44 Z M44.3537945,30.0461384 L50.9608323,30.0461384 L47.6573134,7.79338014 L44.3537945,30.0461384 Z M60,44 L53.0806151,44 L51.896879,36.0170512 L43.4814109,36.0170512 L42.2956853,44 L36,44 L42.9820533,0 L53.0189414,0 L60,44 L60,44 Z"/>
        <polyline points="16.655 20.555 14.179 44 4.829 44 0 0 6.625 0 10.277 34.697 13.559 0 20.121 0 23.527 34.948 27.057 0 33 0 28.172 44 19.132 44 16.655 20.555"/>
      </g>
      <g fill="#262652" transform="translate(231 2)">
        <polyline points="33.804 20.548 42.587 20.548 42.587 26.835 33.804 26.835 33.804 45 27 45 27 1 45 1 45 7.285 33.804 7.285 33.804 20.548"/>
        <path d="M6.91572309,34.3783151 C6.91572309,37.5203922 8.29926903,38.7148429 10.5005016,38.7148429 C12.700731,38.7148429 14.0832736,37.5203922 14.0832736,34.3783151 L14.0832736,10.6216849 C14.0832736,7.47860486 12.700731,6.28415422 10.5005016,6.28415422 C8.29926903,6.28415422 6.91572309,7.47860486 6.91572309,10.6216849 L6.91572309,34.3783151 Z M0,11.0609539 C0,4.0226209 3.70918733,0 10.5005016,0 C17.2898094,0 21,4.0226209 21,11.0609539 L21,33.9380432 C21,40.9773791 17.2898094,45 10.5005016,45 C3.70918733,45 0,40.9773791 0,33.9380432 L0,11.0609539 L0,11.0609539 Z"/>
      </g>
      <g fill="#262652" transform="translate(0 2)">
        <path d="M201.563853,0 C208.414011,0 211.935636,4.0226209 211.935636,11.0609539 L211.935636,12.4439492 L205.277548,12.4439492 L205.277548,10.6216849 C205.277548,7.47860486 203.997422,6.28415422 201.755923,6.28415422 C199.515446,6.28415422 198.23532,7.47860486 198.23532,10.6216849 C198.23532,19.6718297 212,21.367729 212,33.9380432 C212,40.9773791 208.414011,45 201.499489,45 C194.584967,45 191,40.9773791 191,33.9380432 L191,31.2352351 L197.65911,31.2352351 L197.65911,34.3783151 C197.65911,37.5203922 199.066942,38.6526632 201.307419,38.6526632 C203.548918,38.6526632 204.957772,37.5203922 204.957772,34.3783151 C204.957772,25.3281703 191.19207,23.6302652 191.19207,11.0609539 C191.19207,4.0226209 194.713695,0 201.563853,0"/>
        <polyline points="169.241 13.13 169.241 45 163 45 163 1 171.7 1 178.823 27.337 178.823 1 185 1 185 45 177.877 45 169.241 13.13"/>
        <path d="M141.353795,31.0461384 L147.960832,31.0461384 L144.657313,8.79338014 L141.353795,31.0461384 Z M157,45 L150.080615,45 L148.895884,37.0170512 L140.480416,37.0170512 L139.29668,45 L133,45 L139.982053,1 L150.018941,1 L157,45 L157,45 Z M112.754059,7.28485456 L112.754059,20.8004012 L115.394737,20.8004012 C117.911954,20.8004012 119.447368,19.668004 119.447368,16.1474423 L119.447368,11.8114343 C119.447368,8.66800401 118.402856,7.28485456 116.008119,7.28485456 L112.754059,7.28485456 Z M120.12248,45 C119.754059,43.8676028 119.508119,43.1765296 119.508119,39.5927783 L119.508119,32.6800401 C119.508119,28.5927783 118.157895,27.0852558 115.088046,27.0852558 L112.754059,27.0852558 L112.754059,45 L106,45 L106,1 L116.192329,1 C123.193309,1 126.201428,4.33099298 126.201428,11.1203611 L126.201428,14.5767302 C126.201428,19.1023069 124.789474,22.0571715 121.780375,23.5015045 C125.157895,24.9478435 126.263158,28.2798395 126.263158,32.8676028 L126.263158,39.6569709 C126.263158,41.7933801 126.324888,43.3650953 127,45 L120.12248,45 L120.12248,45 Z"/>
        <polyline points="87.966 19.543 97.53 19.543 97.53 25.828 87.966 25.828 87.966 38.713 100 38.713 100 45 81 45 81 1 100 1 100 7.285 87.966 7.285 87.966 19.543"/>
        <polyline points="54 1 75 1 75 7.285 67.897 7.285 67.897 45 61.103 45 61.103 7.285 54 7.285 54 1"/>
        <polyline points="36.966 19.543 46.53 19.543 46.53 25.828 36.966 25.828 36.966 38.713 49 38.713 49 45 30 45 30 1 49 1 49 7.285 36.966 7.285 36.966 19.543"/>
        <polyline points="12.316 36.892 17.622 1 24 1 17.179 45 6.822 45 0 1 7.011 1 12.316 36.892"/>
      </g>
    </g>
    <path fill="#AA2531" d="M133.926119,71.1811596 C133.385615,71.5697768 132.782764,71.8880618 132.215647,72.2438442 C129.482832,73.9589967 128.416685,76.3935355 129.047181,79.5434694 C129.352936,81.0720404 129.68567,82.5956226 130.012409,84.1202026 C130.563968,86.694428 131.554176,89.2686533 131.54918,91.8408832 C131.543185,94.266442 132.380515,95.8019974 134.12512,97.1729221 C135.717846,98.4251131 137.255616,99.7461497 138.78839,101.013307 C138.478638,101.677816 138.237831,102.196653 137.956056,102.801296 C139.909494,103.525671 139.644705,104.929522 139.285992,106.439136 C138.769016,108.619969 138.323848,110.816738 137.852811,113.008082 L137.004409,113.620331 C136.87316,113.339916 136.756125,113.084338 136.652099,112.823813 C134.786591,108.133335 132.903097,103.450839 131.088548,98.7414036 C131.088548,98.7384103 131.088548,98.735417 131.088548,98.731426 C131.12352,97.7107157 130.814767,97.2208147 129.994423,96.8905555 C127.949059,96.0683998 125.857732,95.3450225 123.863327,94.4161063 C123.067963,94.0449389 122.248618,93.3584788 121.838946,92.6011777 C120.777794,90.6385803 119.22004,89.5071184 117.079752,89.0980361 C116.18147,88.9274188 115.245219,88.901477 114.383908,88.6280903 C113.946258,88.4884036 113.304771,87.929657 113.322757,87.5914158 C113.419679,85.8213864 113.214843,83.9575674 115.045379,82.6894122 C116.385307,81.760496 116.717042,79.9485606 115.803772,79.0146556 C114.855531,78.0438334 114.758608,77.0061612 114.838544,75.7719299 C115.095339,71.8028335 113.594539,69.4690688 109.912484,67.9953746 C109.214042,67.7160013 108.481628,67.5214378 107.761204,67.2999347 C106.070557,66.7810986 104.437862,66.9018277 102.970036,67.9265291 C99.382905,70.4319089 97.6992515,72.9881745 98.7663981,77.3304338 C98.950251,78.074764 99.0541679,79.0106646 98.7634005,79.6681896 C97.8291476,81.7834445 97.9020893,82.5517211 99.5317859,84.3526811 C100.363121,85.2706219 100.705847,86.5287995 99.810563,87.393859 C98.6025291,88.562238 98.3996913,89.7904827 98.5465739,91.3260381 C98.736422,93.2936243 98.3727129,93.6238835 96.2973727,93.6278745 C95.4580439,93.6288723 95.0993308,93.9351851 94.6217128,94.6864998 C93.8143585,95.9576483 92.7861808,97.3026311 91.5131988,98.0190241 C88.6534859,99.627416 86.5881377,101.79655 85.2921741,104.767885 C85.0703516,105.277741 84.7546041,105.746689 84.4818222,106.234594 C84.3429333,106.214639 84.2050436,106.195682 84.0661547,106.175727 C83.9752274,105.645915 83.9672338,105.08218 83.7673936,104.597267 C83.565555,104.10138 83.1059226,103.259269 82.8781048,103.296186 C81.2104385,103.569573 80.789775,102.281462 80.1063216,101.305651 C79.024187,99.7621139 77.9420524,98.2195742 76.8769043,96.6650613 C76.6390945,96.318838 76.2224277,95.8468967 76.3093582,95.5635324 C77.0257852,93.2437362 75.5689504,94.2514756 74.4798214,94.5617795 C73.8803009,93.3973915 73.31875,92.2529588 72.7092374,91.1334701 C71.4822187,88.8815218 71.1854561,88.8086852 69.0621542,90.1007867 C68.8393324,90.2354845 68.598525,90.3402495 68.210835,90.5388041 C66.772985,88.6929448 65.4210662,86.8211437 63.9222649,85.0740629 C62.4294587,83.3319708 61.0745423,81.630787 62.1626721,79.1573356 C62.2046385,79.0625482 62.2056377,78.9448123 62.2046385,78.8380518 C62.1856537,77.8592475 61.7500021,77.4022726 60.7667885,77.7993818 C60.0193862,78.1007058 59.3329352,78.5916046 58.5665481,78.7881637 C58.0749413,78.9148794 57.3215438,78.8480294 56.9718235,78.5417165 C56.0865315,77.7694489 55.4140693,76.755723 54.5487614,75.9565158 C54.169065,75.6053037 53.5245805,75.5384536 53,75.3418945 C53.1368905,75.8517508 53.173861,76.4194773 53.4286572,76.8614857 C54.2569947,78.2972649 56.0985219,79.2441408 55.3950845,81.3344517 C57.3824951,81.3424338 58.416668,82.5676853 57.6462841,84.194037 C56.6990417,86.1935516 56.7320153,88.0414064 57.486412,90.0459098 C57.7991618,90.8770453 57.954038,91.8728116 57.8321355,92.7448553 C57.3964839,95.8409101 58.7284187,98.0808853 60.9326558,100.047474 C61.7450061,100.773844 62.3445267,101.737682 63.2537995,102.855175 C61.5201859,103.603497 60.1223039,104.25304 58.6894498,104.815777 C55.924661,105.901342 55.7757801,106.248563 57.1586741,108.874672 C57.3085542,109.16103 57.4784184,109.435414 57.6392897,109.715785 C58.2108326,110.711552 58.9442461,111.002898 60.0663486,110.496035 C62.1766609,109.54417 64.4028805,108.824784 66.4512423,107.760172 C68.1418902,106.88314 68.7883732,108.012606 69.6426899,108.947509 C70.5739451,109.968219 69.782578,110.410227 69.0221862,110.934052 C68.8203476,111.073739 68.7653915,111.50577 68.7444083,111.812083 C68.6804595,112.714059 68.7354155,113.628009 68.6205074,114.522004 C68.3147519,116.894681 70.7298205,119.72134 73.0599569,120.022664 C74.2560004,120.17632 75.6728672,120.660234 76.4622359,121.493365 C78.0569606,123.175592 79.7675925,125.015464 78.6275043,127.771282 C78.4216689,128.269165 78.601525,128.94465 78.6614771,129.531334 C78.8783037,131.671533 79.2370168,133.805745 79.3129561,135.948938 C79.3689113,137.520413 79.0601582,139.102863 78.9322605,140.681322 C78.9092789,140.972668 78.8593189,141.421661 79.0171926,141.543388 C80.8337398,142.941252 80.6319012,145.09542 81.0255864,146.982187 C81.2733882,148.165533 81.735019,148.378056 83.0759466,147.977954 C80.5939316,141.977414 83.3916941,136.629411 84.7276256,130.833413 C85.9896164,131.569761 86.9168748,132.10955 88.0549646,132.775058 C87.5203921,133.078377 87.3065631,133.286909 87.0677541,133.321831 C85.3751078,133.56728 84.9064826,134.719695 85.2891765,136.113568 C86.1634773,139.303413 87.1436934,142.469311 88.2448128,145.586319 C88.4296649,146.112139 89.4358602,146.347611 90.0633584,146.717781 C90.1812641,146.606031 90.300169,146.493284 90.4190739,146.381535 C90.4948884,146.670925 90.572176,146.959637 90.6440333,147.247908 L37.4337195,186 L60.7632579,114.893797 L0,71.0461886 L74.9857256,71.209228 L98.0005012,0 L121.017282,71.209228 L133.926119,71.1811596 Z M143.516658,71.1603063 L196,71.0461886 L155.209105,100.48292 C152.406686,99.8452976 149.641947,99.0392187 146.854939,98.3303257 C146.523204,98.245516 146.16649,98.2574891 145.810774,98.2225675 C145.660838,101.382149 145.513208,104.493395 145.366215,107.586038 L143.330247,109.055293 C142.7848,107.405333 142.070901,105.829881 140.693866,104.550373 C140.516009,104.384744 140.503019,103.674338 140.633914,103.598508 C142.170685,102.708504 141.407296,101.799543 140.618926,100.936479 C142.600342,98.8222223 144.471845,96.7738174 143.675482,93.6228857 C143.603539,93.3405191 143.757416,92.989307 143.845346,92.6809986 C144.762612,89.4761878 145.738832,86.2863434 146.593148,83.0655684 C147.057777,81.3174898 147.717249,79.4915858 147.60434,77.7445049 C147.40546,74.6480558 145.819208,72.5763453 143.516658,71.1603063 Z M65.7318177,100.59724 C64.6636719,100.304896 63.5485637,100.016543 63.0999225,98.4630281 C62.550362,96.5652852 61.2823761,94.8860521 60.4500418,93.056157 C59.83953,91.7131697 59.4278593,90.2783883 58.9272596,88.8845151 C59.0991222,88.8116784 59.2719839,88.7398396 59.4438465,88.6660052 C62.4394507,91.5565211 63.5255821,96.1701715 67.8551195,97.868362 C67.6612746,98.291413 67.534376,98.5747774 67.4014823,98.8551484 C67.0327772,99.6353981 66.9668299,100.936479 65.7318177,100.59724 Z M79.5008058,114.700603 C80.0643551,115.539721 80.6279044,116.379836 81.1904545,117.218954 C79.5457699,117.184032 79.3089593,116.083501 79.069151,114.987959 C79.213036,114.892173 79.3569209,114.796388 79.5008058,114.700603 Z M83.4276653,109.475325 C84.2530052,111.426947 85.0054035,113.205956 85.7568026,114.984965 C85.55996,115.066782 85.3631174,115.149596 85.1662748,115.231412 C83.7653952,113.55617 82.3645156,111.878933 80.7188317,109.909351 C82.0677529,109.693835 82.8361384,109.57111 83.4276653,109.475325 Z M81.1504865,133.571271 C81.1504865,131.640602 81.1504865,129.896515 81.1504865,127.985801 C83.1548835,129.266927 83.1508867,131.126755 81.1504865,133.571271 Z"/>
    <path fill="#262652" d="M150.602152,217.024991 C151.569657,212.30304 152.440795,207.566008 152.762215,202.730131 C152.869129,201.128723 153.16789,199.540286 153.361735,197.94287 C153.476643,196.993001 153.976244,196.74356 154.811576,197.129694 C155.346148,197.377139 155.884717,197.635559 156.372327,197.961827 C158.611537,199.461463 160.849747,200.959104 163.046989,202.512619 C164.165095,203.302846 165.067373,203.448519 166.427286,202.750086 C167.400508,202.24921 168.853346,202.605411 170.082363,202.701196 C170.56098,202.738113 171.013618,203.110278 171.977847,203.56426 C171.977847,201.046907 172.033802,198.904712 171.967855,196.767507 C171.757023,190.100462 171.479246,183.435414 171.271412,176.76837 C171.163498,173.437841 171.040596,173.229309 167.811179,172.414137 C165.336159,171.789538 165.024408,171.07115 165.512018,168.603685 C165.944672,166.411602 166.210459,164.155663 166.24743,161.92367 C166.2844,159.672719 166.064576,157.400816 165.755823,155.165829 C165.061378,150.113164 164.289995,145.069478 163.460658,140.03577 C162.465454,133.993325 161.05858,127.997774 160.42009,121.920407 C159.84455,116.433715 160.043391,110.864209 159.938475,105.330622 C159.883519,102.429131 158.822368,101.259754 156.05658,100.670077 C152.963054,100.008561 149.922486,99.1105754 146.854939,98.3303257 C146.523204,98.245516 146.16649,98.2574891 145.810774,98.2225675 C145.568967,103.318137 145.333156,108.287988 145.096345,113.256842 C144.944467,113.24886 144.792588,113.238882 144.637712,113.229902 C143.51561,110.253579 143.224842,106.902097 140.693866,104.550373 C140.516009,104.384744 140.503019,103.674338 140.633914,103.598508 C142.170685,102.708504 141.407296,101.799543 140.618926,100.936479 C142.600342,98.8222223 144.471845,96.7738174 143.675482,93.6228857 C143.603539,93.3405191 143.757416,92.989307 143.845346,92.6809986 C144.762612,89.4761878 145.738832,86.2863434 146.593148,83.0655684 C147.057777,81.3174898 147.717249,79.4915858 147.60434,77.7445049 C147.332557,73.5129972 144.469846,71.1951966 140.728838,69.849216 C138.471644,69.0370379 136.299381,69.1298298 134.369924,70.8300158 C133.731435,71.3917557 132.944064,71.7868694 132.215647,72.2438442 C129.482832,73.9589967 128.416685,76.3935355 129.047181,79.5434694 C129.352936,81.0720404 129.68567,82.5956226 130.012409,84.1202026 C130.563968,86.694428 131.554176,89.2686533 131.54918,91.8408832 C131.543185,94.266442 132.380515,95.8019974 134.12512,97.1729221 C135.717846,98.4251131 137.255616,99.7461497 138.78839,101.013307 C138.478638,101.677816 138.237831,102.196653 137.956056,102.801296 C139.909494,103.525671 139.644705,104.929522 139.285992,106.439136 C138.707455,108.879661 138.218846,111.340141 137.683274,113.790644 C137.653298,113.925342 137.537391,114.040085 137.345544,114.352384 C137.067766,113.74375 136.838949,113.291763 136.652099,112.823813 C134.786591,108.133335 132.903097,103.450839 131.088548,98.7414036 C131.088548,98.7384103 131.088548,98.735417 131.088548,98.731426 C131.12352,97.7107157 130.814767,97.2208147 129.994423,96.8905555 C127.949059,96.0683998 125.857732,95.3450225 123.863327,94.4161063 C123.067963,94.0449389 122.248618,93.3584788 121.838946,92.6011777 C121.061692,91.1636476 120.018009,90.1720235 118.67413,89.5835678 L140.5,22 L170.914516,116.18131 L270,115.964542 L189.707159,173.956542 L220.534777,268 L150.602152,217.024991 Z M119.407666,225.03591 L60.4652231,268 L90.0482444,177.750409 C90.4052884,179.002983 90.7785837,180.251988 91.1095217,181.511729 C91.190457,181.818042 90.9706328,182.222135 90.8417359,182.562372 C90.2392177,184.151807 89.2969713,185.690355 89.0731503,187.32868 C88.5865395,190.889692 88.4506481,194.498596 88.2058439,198.090539 C88.1758679,198.531549 88.3567233,198.986529 88.4396569,199.435521 C88.5965315,199.429535 88.7544052,199.422551 88.9122789,199.415566 C89.3918954,194.895705 89.4998091,190.299017 91.4032867,185.817071 C91.693055,186.222162 91.9098816,186.401759 91.9658368,186.623263 C92.8581232,190.095474 94.2020484,193.421014 94.3968926,197.109739 C94.5797464,200.57297 95.4650383,203.996291 95.995614,207.444555 C96.2084438,208.832442 96.2923767,210.244275 98.0859423,210.74116 C96.5641593,212.534138 96.642097,214.295188 97.5763498,216.13506 C97.7232323,216.424411 97.7502108,216.944245 97.5853426,217.193685 C96.7370211,218.473814 95.8157579,219.70605 94.901489,220.941279 C94.4978119,221.487054 93.8193545,221.93904 93.6584831,222.537698 C92.7691944,225.864235 90.5179948,227.947562 87.6353002,229.548969 C86.7020466,230.067806 85.7338209,230.626552 85.0034051,231.382856 C83.5225894,232.91442 83.6035247,234.188562 85.4580415,235.158386 C86.659081,235.785978 88.2647968,236.147168 89.5827427,235.942627 C92.4374597,235.497625 95.1922565,234.619595 97.602329,232.801673 C98.3647193,232.226962 99.6556868,232.308779 100.715839,232.188049 C101.115519,232.14315 101.564161,232.505338 101.962842,232.456447 C106.702051,231.877745 108.507607,231.793933 107.174673,226.240391 C106.347335,222.792127 105.770796,219.283996 106.563163,215.710014 C106.814961,214.575559 107.298574,213.29543 106.997815,212.281704 C106.55417,210.786059 107.207647,210.09461 108.233826,209.55083 C110.216241,208.500187 110.831749,206.85388 110.35513,204.823435 C109.993419,203.282891 109.357927,201.802212 108.811365,200.307565 C108.630509,199.811678 108.114922,199.334748 108.151892,198.879768 C108.330749,196.62782 108.076952,194.480637 107.712244,192.230684 C107.326552,189.851022 108.099934,187.230899 108.645497,184.777403 C108.926273,183.516232 109.109126,182.466587 108.557568,181.222378 C108.099934,180.189695 108.044977,178.978412 107.811164,177.84695 C107.982028,177.803049 108.152891,177.759147 108.322755,177.715245 C108.457647,177.919787 108.655489,178.107366 108.715441,178.33286 C109.653691,181.857952 110.781789,185.350119 111.445258,188.927095 C112.248616,193.25339 112.360526,197.719371 113.317761,202.002763 C114.197057,205.937935 115.701854,209.81823 115.167281,213.861161 C114.638704,217.86019 116.13151,220.16502 119.211047,221.517985 C119.223049,222.698882 119.289639,223.871261 119.407666,225.03591 Z M88.1773567,171.707059 L11,115.964542 L68.7742983,116.090935 C69.3527302,117.996673 71.2324646,119.78634 73.0599569,120.022664 C74.2560004,120.17632 75.6728672,120.660234 76.4622359,121.493365 C78.0569606,123.175592 79.7675925,125.015464 78.6275043,127.771282 C78.4216689,128.269165 78.601525,128.94465 78.6614771,129.531334 C78.8783037,131.671533 79.2370168,133.805745 79.3129561,135.948938 C79.3689113,137.520413 79.0601582,139.102863 78.9322605,140.681322 C78.9092789,140.972668 78.8593189,141.421661 79.0171926,141.543388 C80.8337398,142.941252 80.6319012,145.09542 81.0255864,146.982187 C81.2733882,148.165533 81.735019,148.378056 83.0759466,147.977954 C80.5939316,141.977414 83.3916941,136.629411 84.7276256,130.833413 C85.9896164,131.569761 86.9168748,132.10955 88.0549646,132.775058 C87.5203921,133.078377 87.3065631,133.286909 87.0677541,133.321831 C85.3751078,133.56728 84.9064826,134.719695 85.2891765,136.113568 C86.1634773,139.303413 87.1436934,142.469311 88.2448128,145.586319 C88.4296649,146.112139 89.4358602,146.347611 90.0633584,146.717781 C90.1812641,146.606031 90.300169,146.493284 90.4190739,146.381535 C90.9146775,148.273291 91.4732308,150.136112 90.1662761,152.035851 C89.8265478,152.528745 89.7356205,153.317975 89.8045653,153.93958 C90.0193935,155.864263 90.5020076,157.765997 90.6269077,159.691677 C90.7757886,161.997504 90.7468118,164.325283 90.6179149,166.634103 C90.5719516,167.448277 90.2022473,168.435063 89.633702,168.989819 C88.8110438,169.793548 88.4058239,170.692073 88.1773567,171.707059 Z M79.388893,116.114157 L80.451131,116.116481 C80.6977078,116.484052 80.9441769,116.851598 81.1904545,117.218954 C80.1327382,117.196495 79.6573086,116.733308 79.388893,116.114157 Z M81.1504865,133.571271 C81.1504865,131.640602 81.1504865,129.896515 81.1504865,127.985801 C83.1548835,129.266927 83.1508867,131.126755 81.1504865,133.571271 Z M157.297587,159.545006 C158.314774,160.616602 159.330961,161.689196 160.593951,163.018215 C158.864334,162.918438 158.808379,163.813431 158.904302,164.909971 C158.989234,165.902744 158.921289,166.908488 158.921289,167.908245 C158.749426,167.996048 158.577564,168.083851 158.4067,168.171654 C158.095949,167.831417 157.559378,167.51812 157.514414,167.144957 C157.203663,164.634589 157.000825,162.111249 156.761017,159.592898 C156.940873,159.575937 157.117731,159.56097 157.297587,159.545006 Z"/>
  </g>
</svg>
