<svg xmlns="http://www.w3.org/2000/svg" viewBox="0 0 206 50">
  <g fill="none">
    <g transform="translate(58.81 10)">
      <g fill="#c3666e" transform="translate(18.164 19.063)">
        <polyline points="105.386 10.625 103.973 10.625 103.973 0 105.161 0 107.868 6.43 107.868 0 109.297 0 109.297 10.625 108.094 10.625 105.386 4.195 105.386 10.625"/>
        <path d="M94.8908032,1.36968548 C94.7855393,1.36968548 94.6686474,1.37923784 94.5401276,1.39834257 C94.4113018,1.41775543 94.2846179,1.47753473 94.1606881,1.57860488 C94.0364523,1.67967504 93.9339424,1.84298962 93.8528525,2.06854862 C93.7717626,2.29472391 93.7310646,2.61426583 93.7310646,3.02748253 L93.7310646,7.59751747 C93.7310646,8.02059468 93.7717626,8.34506685 93.8528525,8.57062585 C93.9339424,8.796493 94.0364523,8.96011572 94.1606881,9.06087773 C94.2846179,9.16163974 94.4113018,9.22172718 94.5401276,9.24114005 C94.6686474,9.26024477 94.7855393,9.27010528 94.8908032,9.27010528 C94.986275,9.27010528 95.1007189,9.26024477 95.2344407,9.24114005 C95.3681625,9.22172718 95.4966824,9.16163974 95.6209182,9.06087773 C95.7448481,8.96011572 95.8476639,8.796493 95.9287538,8.57062585 C96.0095377,8.34506685 96.0505417,8.02059468 96.0505417,7.59751747 L96.0505417,3.02748253 C96.0505417,2.61426583 96.0095377,2.29472391 95.9287538,2.06854862 C95.8476639,1.84298962 95.7448481,1.67967504 95.6209182,1.57860488 C95.4966824,1.47753473 95.3681625,1.41775543 95.2344407,1.39834257 C95.1007189,1.37923784 94.986275,1.36968548 94.8908032,1.36968548 Z M94.8908032,10.625 C94.3849858,10.625 93.9795363,10.5337903 93.6738427,10.3510629 C93.3681491,10.1686436 93.1392614,9.98129405 92.9865676,9.7887061 C92.5860141,9.27010528 92.3855844,8.53950364 92.3855844,7.59751747 L92.3855844,3.02748253 C92.3855844,2.08549636 92.5860141,1.35520287 92.9865676,0.83598576 C93.0627615,0.740153998 93.1560914,0.643705954 93.2656392,0.547874192 C93.3754931,0.451734288 93.5092149,0.362681622 93.6668047,0.281024332 C93.8243945,0.199367043 94.0034043,0.132192367 94.203528,0.0791921638 C94.4039578,0.0268082422 94.6331515,0 94.8908032,0 C95.4064125,0 95.81431,0.0912096517 96.1148016,0.273628955 C96.4152932,0.45666454 96.6423449,0.643705954 96.7950387,0.83598576 C97.1955922,1.35520287 97.3963279,2.08549636 97.3963279,3.02748253 L97.3963279,7.59751747 C97.3963279,8.53950364 97.1955922,9.27010528 96.7950387,9.7887061 C96.6423449,9.98129405 96.4152932,10.1686436 96.1148016,10.3510629 C95.81431,10.5337903 95.4064125,10.625 94.8908032,10.625 L94.8908032,10.625 Z"/>
        <polygon points="83.93 10.938 85.183 10.938 85.183 .313 83.93 .313"/>
        <polyline points="77.04 1.37 74.622 1.37 74.622 10.625 73.195 10.625 73.195 1.37 70.777 1.37 70.777 0 77.04 0 77.04 1.37"/>
        <path d="M61.6873962,4.00330245 L61.0565588,6.61256235 L62.3179126,6.61256235 L61.6873962,4.00330245 Z M60.0199307,10.9375 L58.5630653,10.9375 L61.1165927,0.3125 L62.2431111,0.3125 L64.8264948,10.9375 L63.3545407,10.9375 L62.6485806,7.96772591 L60.7258908,7.96772591 L60.0199307,10.9375 L60.0199307,10.9375 Z M48.3860146,9.58233644 L49.1809483,9.58233644 C49.3611632,9.58233644 49.533682,9.56569732 49.6988256,9.53180282 C49.8636485,9.49821646 50.00859,9.4239567 50.1339708,9.30840728 C50.2587103,9.193166 50.3613237,9.01999594 50.4414905,8.78951337 C50.5213366,8.55872267 50.56142,8.24658517 50.56142,7.8521765 L50.56142,3.38334131 C50.56142,2.98924076 50.5213366,2.67679514 50.4414905,2.44631257 C50.3613237,2.21552187 50.2587103,2.04265994 50.1339708,1.92741865 C50.00859,1.81217737 49.8636485,1.7397664 49.6988256,1.71111014 C49.533682,1.68214576 49.3611632,1.6679717 49.1809483,1.6679717 L48.3860146,1.6679717 L48.3860146,9.58233644 Z M49.1809483,10.9375 L46.9757209,10.9375 L46.9757209,0.3125 L49.1809483,0.3125 C50.1310848,0.3125 50.846493,0.596289368 51.3265316,1.16325184 C51.7664868,1.6729018 51.9864644,2.4127262 51.9864644,3.38334131 L51.9864644,7.8521765 C51.9864644,8.82340786 51.7664868,9.56816237 51.3265316,10.0867482 C50.846493,10.6540188 50.1310848,10.9375 49.1809483,10.9375 L49.1809483,10.9375 Z"/>
        <polyline points="36.176 10.625 34.762 10.625 34.762 0 35.95 0 38.657 6.43 38.657 0 40.086 0 40.086 10.625 38.883 10.625 36.176 4.195 36.176 10.625"/>
        <path d="M25.523475,10.625 C25.0488498,10.625 24.669454,10.5411857 24.3846789,10.3729409 C24.0999038,10.2046961 23.8866267,10.0244337 23.7442392,9.83215394 C23.364539,9.36131493 23.174689,8.68371349 23.174689,7.79934964 L23.174689,0 L24.5127668,0 L24.5127668,7.79934964 C24.5127668,8.16480453 24.5483637,8.44829399 24.6195575,8.65012616 C24.6907512,8.85165018 24.7783744,8.99863331 24.882731,9.08984296 C24.9870877,9.18105261 25.0963124,9.23374467 25.2104049,9.24822728 C25.3241933,9.2627099 25.42855,9.27010528 25.523475,9.27010528 C25.6180958,9.27010528 25.7227567,9.2627099 25.8365451,9.24822728 C25.9506376,9.23374467 26.059558,9.18105261 26.1639147,9.08984296 C26.2682714,8.99863331 26.3561988,8.85165018 26.4273925,8.65012616 C26.4982821,8.44829399 26.5341832,8.16480453 26.5341832,7.79934964 L26.5341832,0 L27.872261,0 L27.872261,7.79934964 C27.872261,8.68371349 27.6821067,9.36131493 27.3027109,9.83215394 C27.1603233,10.0244337 26.9470462,10.2046961 26.6622711,10.3729409 C26.377496,10.5411857 25.9977959,10.625 25.523475,10.625 L25.523475,10.625 Z M13.7793918,1.36968548 C13.6741279,1.36968548 13.5575421,1.37923784 13.4287162,1.39834257 C13.2998904,1.41775543 13.1732066,1.47753473 13.0492767,1.57860488 C12.9253469,1.67967504 12.822531,1.84298962 12.7414411,2.06854862 C12.6603512,2.29472391 12.6199593,2.61426583 12.6199593,3.02748253 L12.6199593,7.59751747 C12.6199593,8.02059468 12.6603512,8.34506685 12.7414411,8.57062585 C12.822531,8.796493 12.9253469,8.96011572 13.0492767,9.06087773 C13.1732066,9.16163974 13.2998904,9.22172718 13.4287162,9.24114005 C13.5575421,9.26024477 13.6741279,9.27010528 13.7793918,9.27010528 C13.8748637,9.27010528 13.9893075,9.26024477 14.1230293,9.24114005 C14.2567512,9.22172718 14.385577,9.16163974 14.5095068,9.06087773 C14.6334367,8.96011572 14.7362526,8.796493 14.8173425,8.57062585 C14.8984323,8.34506685 14.9391303,8.02059468 14.9391303,7.59751747 L14.9391303,3.02748253 C14.9391303,2.61426583 14.8984323,2.29472391 14.8173425,2.06854862 C14.7362526,1.84298962 14.6334367,1.67967504 14.5095068,1.57860488 C14.385577,1.47753473 14.2567512,1.41775543 14.1230293,1.39834257 C13.9893075,1.37923784 13.8748637,1.36968548 13.7793918,1.36968548 Z M13.7793918,10.625 C13.2735744,10.625 12.867819,10.5337903 12.5627374,10.3510629 C12.2570437,10.1686436 12.02785,9.98129405 11.8751562,9.7887061 C11.4742968,9.27010528 11.274173,8.53950364 11.274173,7.59751747 L11.274173,3.02748253 C11.274173,2.08549636 11.4742968,1.35520287 11.8751562,0.83598576 C11.9516561,0.740153998 12.04468,0.643705954 12.1545339,0.547874192 C12.2640817,0.451734288 12.3978036,0.362681622 12.5553934,0.281024332 C12.7129832,0.199367043 12.8916869,0.132192367 13.0921167,0.0791921638 C13.2925464,0.0268082422 13.5217401,0 13.7793918,0 C14.2950011,0 14.7028986,0.0912096517 15.0036962,0.273628955 C15.3041878,0.45666454 15.5306275,0.643705954 15.6836273,0.83598576 C16.0844868,1.35520287 16.2849166,2.08549636 16.2849166,3.02748253 L16.2849166,7.59751747 C16.2849166,8.53950364 16.0844868,9.27010528 15.6836273,9.7887061 C15.5306275,9.98129405 15.3041878,10.1686436 15.0036962,10.3510629 C14.7028986,10.5337903 14.2950011,10.625 13.7793918,10.625 L13.7793918,10.625 Z"/>
        <polyline points="1.351 1.668 1.351 4.94 4.384 4.94 4.384 6.295 1.351 6.295 1.351 10.938 0 10.938 0 .313 4.384 .313 4.384 1.668 1.351 1.668"/>
      </g>
      <g fill="#676785" transform="translate(125.269)">
        <path d="M17.2742509,2.05339394 L17.2742509,12.3212955 L18.5383161,12.3212955 C19.2517422,12.3212955 19.6796746,11.9513677 19.6796746,10.9248261 L19.6796746,3.44986333 C19.6796746,2.42270046 19.2517422,2.05339394 18.5383161,2.05339394 L17.2742509,2.05339394 Z M15.0322307,0 L18.5787046,0 C20.8213414,0 21.9220031,1.25234978 21.9220031,3.5523622 L21.9220031,10.8220166 C21.9220031,13.1223396 20.8213414,14.375 18.5787046,14.375 L15.0322307,14.375 L15.0322307,0 L15.0322307,0 Z"/>
        <polygon points="10.021 14.375 12.214 14.375 12.214 0 10.021 0"/>
        <path d="M2.72490186,9.8159747 L4.88046255,9.8159747 L3.80268221,2.5460097 L2.72490186,9.8159747 Z M7.82928681,14.375 L5.57191524,14.375 L5.18558758,11.7665592 L2.44007748,11.7665592 L2.05374982,14.375 L0,14.375 L2.27736464,0 L5.55161459,0 L7.82928681,14.375 L7.82928681,14.375 Z"/>
      </g>
      <g fill="#676785" transform="translate(92.072 .938)">
        <path d="M22.7847041,1.96401705 L22.7847041,6.18762538 L23.6113435,6.18762538 C24.3996273,6.18762538 24.8807597,5.83375125 24.8807597,4.73357573 L24.8807597,3.37857322 C24.8807597,2.39625125 24.5536633,1.96401705 23.8037351,1.96401705 L22.7847041,1.96401705 Z M25.0918688,13.75 C24.9764952,13.3961259 24.8997841,13.1801655 24.8997841,12.0602432 L24.8997841,9.90001254 C24.8997841,8.62274323 24.4766453,8.15164243 23.5149943,8.15164243 L22.7847041,8.15164243 L22.7847041,13.75 L20.6693172,13.75 L20.6693172,0 L23.861115,0 C26.0535199,0 26.9955329,1.04093531 26.9955329,3.16261284 L26.9955329,4.24272818 C26.9955329,5.65697091 26.5533698,6.5803661 25.6110499,7.03172016 C26.6687434,7.4837011 27.0151709,8.52494985 27.0151709,9.95862588 L27.0151709,12.0803034 C27.0151709,12.7479313 27.0341953,13.2390923 27.2459181,13.75 L25.0918688,13.75 L25.0918688,13.75 Z M13.8903431,9.38941825 L15.9594789,9.38941825 L14.924911,2.43543129 L13.8903431,9.38941825 Z M18.7902883,13.75 L16.6233344,13.75 L16.252622,11.2553285 L13.6171375,11.2553285 L13.2458021,13.75 L11.274173,13.75 L13.4607529,0 L16.60402,0 L18.7902883,13.75 L18.7902883,13.75 Z"/>
        <polyline points="5.216 6.423 4.44 13.75 1.512 13.75 0 0 2.075 0 3.219 10.843 4.246 0 6.301 0 7.368 10.921 8.474 0 10.335 0 8.823 13.75 5.991 13.75 5.216 6.423"/>
      </g>
      <g fill="#676785" transform="translate(72.343 .625)">
        <polyline points="10.587 6.421 13.337 6.421 13.337 8.386 10.587 8.386 10.587 14.063 8.456 14.063 8.456 .313 14.093 .313 14.093 2.277 10.587 2.277 10.587 6.421"/>
        <path d="M2.16580718,10.7432235 C2.16580718,11.7251226 2.5990943,12.0983884 3.28845756,12.0983884 C3.97750662,12.0983884 4.41047953,11.7251226 4.41047953,10.7432235 L4.41047953,3.31927652 C4.41047953,2.33706402 3.97750662,1.96379819 3.28845756,1.96379819 C2.5990943,1.96379819 2.16580718,2.33706402 2.16580718,3.31927652 L2.16580718,10.7432235 Z M0,3.45654808 C0,1.25706903 1.16161166,0 3.28845756,0 C5.41467506,0 6.57660092,1.25706903 6.57660092,3.45654808 L6.57660092,10.6056385 C6.57660092,12.805431 5.41467506,14.0625 3.28845756,14.0625 C1.16161166,14.0625 0,12.805431 0,10.6056385 L0,3.45654808 L0,3.45654808 Z"/>
      </g>
      <g fill="#676785" transform="translate(0 .625)">
        <path d="M63.1240487,0 C65.2693228,0 66.3721952,1.25706903 66.3721952,3.45654808 L66.3721952,3.88873412 L64.287072,3.88873412 L64.287072,3.31927652 C64.287072,2.33706402 63.8861729,1.96379819 63.1841995,1.96379819 C62.4825461,1.96379819 62.081647,2.33706402 62.081647,3.31927652 C62.081647,6.14744679 66.3923522,6.67741531 66.3923522,10.6056385 C66.3923522,12.805431 65.2693228,14.0625 63.1038917,14.0625 C60.9384607,14.0625 59.8157512,12.805431 59.8157512,10.6056385 L59.8157512,9.76101098 L61.9011944,9.76101098 L61.9011944,10.7432235 C61.9011944,11.7251226 62.3420875,12.0789573 63.0437409,12.0789573 C63.7457142,12.0789573 64.1869272,11.7251226 64.1869272,10.7432235 C64.1869272,7.91505321 59.8759021,7.38445788 59.8759021,3.45654808 C59.8759021,1.25706903 60.9787746,0 63.1240487,0"/>
        <polyline points="53.001 4.103 53.001 14.063 51.047 14.063 51.047 .313 53.772 .313 56.002 8.543 56.002 .313 57.937 .313 57.937 14.063 55.706 14.063 53.001 4.103"/>
        <path d="M44.267976,9.70191825 L46.3371117,9.70191825 L45.3025438,2.74793129 L44.267976,9.70191825 Z M49.1679212,14.0625 L47.0009672,14.0625 L46.6299433,11.5678285 L43.9944588,11.5678285 L43.6237464,14.0625 L41.6518058,14.0625 L43.8383857,0.3125 L46.9816528,0.3125 L49.1679212,14.0625 L49.1679212,14.0625 Z M35.3113548,2.27651705 L35.3113548,6.50012538 L36.1383396,6.50012538 C36.9266603,6.50012538 37.4075082,6.14625125 37.4075082,5.04607573 L37.4075082,3.69107322 C37.4075082,2.70875125 37.0803966,2.27651705 36.3304333,2.27651705 L35.3113548,2.27651705 Z M37.6189341,14.0625 C37.5035551,13.7086259 37.4265335,13.4926655 37.4265335,12.3727432 L37.4265335,10.2125125 C37.4265335,8.93524323 37.0036819,8.46414243 36.0422928,8.46414243 L35.3113548,8.46414243 L35.3113548,14.0625 L33.1961761,14.0625 L33.1961761,0.3125 L36.3881228,0.3125 C38.58063,0.3125 39.522687,1.35343531 39.522687,3.47511284 L39.522687,4.55522818 C39.522687,5.96947091 39.0805032,6.8928661 38.1381394,7.34422016 C39.1958822,7.7962011 39.5420191,8.83744985 39.5420191,10.2711259 L39.5420191,12.3928034 C39.5420191,13.0604313 39.5613512,13.5515923 39.772777,14.0625 L37.6189341,14.0625 L37.6189341,14.0625 Z"/>
        <polyline points="27.549 6.107 30.544 6.107 30.544 8.071 27.549 8.071 27.549 12.098 31.317 12.098 31.317 14.063 25.367 14.063 25.367 .313 31.317 .313 31.317 2.277 27.549 2.277 27.549 6.107"/>
        <polyline points="16.911 .313 23.488 .313 23.488 2.277 21.263 2.277 21.263 14.063 19.136 14.063 19.136 2.277 16.911 2.277 16.911 .313"/>
        <polyline points="11.577 6.107 14.572 6.107 14.572 8.071 11.577 8.071 11.577 12.098 15.345 12.098 15.345 14.063 9.395 14.063 9.395 .313 15.345 .313 15.345 2.277 11.577 2.277 11.577 6.107"/>
        <polyline points="3.857 11.529 5.519 .313 7.516 .313 5.38 14.063 2.136 14.063 0 .313 2.196 .313 3.857 11.529"/>
      </g>
    </g>
    <path fill="#c3666e" d="M25.0272196,13.2800671 C24.926214,13.3525703 24.8135571,13.4119518 24.7075781,13.4783292 C24.196888,13.7983203 23.9976535,14.2525253 24.1154763,14.8401995 C24.1726138,15.1253807 24.2347929,15.4096311 24.2958517,15.6940676 C24.3989233,16.1743336 24.5839668,16.6545995 24.5830332,17.1344931 C24.5819128,17.5870228 24.7383875,17.873507 25.0644076,18.1292765 C25.3620457,18.3628942 25.6494139,18.6093563 25.9358485,18.8457663 C25.8779641,18.9697419 25.8329636,19.0665397 25.7803074,19.1793463 C26.1453529,19.3144909 26.095871,19.5764034 26.0288371,19.8580477 C25.932228,20.2649197 25.8490379,20.6747645 25.7610137,21.0835974 L25.60247,21.197823 C25.577943,21.1455066 25.5560724,21.0978243 25.5366326,21.0492189 C25.1880189,20.1741297 24.8360442,19.3005297 24.4969534,18.4219037 C24.4969534,18.4213452 24.4969534,18.4207868 24.4969534,18.4200422 C24.5034888,18.2296111 24.445791,18.1382117 24.2924906,18.0765962 C23.9102666,17.9232089 23.5194533,17.7882505 23.1467522,17.6149452 C22.9981199,17.5456976 22.8450062,17.4176266 22.7684494,17.2763391 C22.5701485,16.9101829 22.2790458,16.6990893 21.879083,16.6227679 C21.7112181,16.5909363 21.5362577,16.5860965 21.3753017,16.5350915 C21.2935166,16.5090305 21.1736397,16.4047868 21.1770008,16.3416821 C21.195113,16.0114527 21.1568346,15.6637253 21.4989129,15.4271291 C21.7493098,15.2538239 21.8113022,14.9157762 21.6406365,14.7415402 C21.4634354,14.5604167 21.4453232,14.3668211 21.4602611,14.1365541 C21.5082491,13.396051 21.2277897,12.9606472 20.5397118,12.6857042 C20.4091917,12.6335823 20.272323,12.5972832 20.137695,12.555958 C19.821758,12.4591602 19.516651,12.4816843 19.2423535,12.6728599 C18.5720143,13.1402815 18.2573844,13.6171967 18.4568056,14.4273197 C18.4911628,14.5661873 18.5105821,14.7407956 18.4562454,14.8634682 C18.2816585,15.2581053 18.2952894,15.4014405 18.5998362,15.7374405 C18.7551906,15.9086981 18.8192369,16.1434327 18.6519322,16.3048244 C18.4261829,16.5228056 18.3882779,16.7519557 18.4157263,17.0384399 C18.4512039,17.4055269 18.3832364,17.4671424 17.9954106,17.467887 C17.8385625,17.4680732 17.7715285,17.5252211 17.6822745,17.6653917 C17.5314015,17.9025463 17.3392625,18.153476 17.1013761,18.2871314 C16.5669721,18.5872045 16.1810136,18.9918937 15.9388325,19.5462471 C15.8973798,19.6413696 15.838375,19.7288599 15.7873994,19.819887 C15.7614447,19.816164 15.7356768,19.8126272 15.7097222,19.8089042 C15.6927303,19.7100588 15.6912365,19.6048843 15.6538917,19.5144156 C15.6161735,19.4218992 15.5302804,19.264789 15.4877074,19.2716765 C15.176065,19.3226815 15.0974542,19.0823624 14.969735,18.9003081 C14.7675129,18.6123347 14.5652908,18.3245474 14.366243,18.0345264 C14.3218027,17.9699325 14.2439388,17.8818837 14.2601838,17.8290172 C14.3940649,17.3962194 14.1218213,17.5842305 13.9182922,17.642123 C13.8062578,17.4248865 13.7013189,17.2113729 13.5874173,17.0025131 C13.3581202,16.5823735 13.3026632,16.5687845 12.9058747,16.8098483 C12.8642352,16.8349785 12.8192347,16.8545242 12.7467858,16.8915679 C12.47809,16.5471912 12.2254524,16.1979746 11.9453664,15.8720267 C11.6664008,15.5470095 11.4132031,15.2296244 11.6165455,14.7681596 C11.6243879,14.7504754 11.6245746,14.7285098 11.6243879,14.7085918 C11.6208401,14.525979 11.5394285,14.4407225 11.3556921,14.51481 C11.2160225,14.5710272 11.0877431,14.6626128 10.9445258,14.6992843 C10.8526576,14.7229253 10.7118677,14.7104532 10.6465143,14.6533053 C10.4810769,14.5092255 10.3554116,14.3200976 10.1937086,14.1709918 C10.1227535,14.1054671 10.0023165,14.0929951 9.90428644,14.0563236 C9.92986763,14.151446 9.93677642,14.2573652 9.98439104,14.3398294 C10.1391852,14.6076987 10.4833176,14.7843546 10.3518639,15.174338 C10.7232579,15.1758272 10.9165172,15.4044189 10.772553,15.7078427 C10.5955387,16.0808865 10.6017006,16.4256355 10.7426772,16.79961 C10.8011218,16.9546726 10.830064,17.1404499 10.8072837,17.3031447 C10.725872,17.8807668 10.9747751,18.2986726 11.3866882,18.6655735 C11.5384949,18.8010904 11.6505293,18.9809109 11.8204481,19.1893984 C11.496482,19.3290106 11.2352551,19.450194 10.9674929,19.5551823 C10.4508276,19.7577131 10.4230057,19.8224931 10.6814317,20.3124388 C10.7094403,20.3658638 10.7411834,20.4170549 10.771246,20.4693629 C10.8780521,20.6551402 11.0151075,20.7094959 11.2247985,20.6149319 C11.6191596,20.4373452 12.0351807,20.3031314 12.4179649,20.1045097 C12.7339019,19.9408843 12.8547123,20.1516056 13.0143613,20.3260278 C13.1883881,20.5164588 13.0405027,20.598923 12.8984057,20.6966516 C12.8606875,20.7227125 12.8504176,20.8033153 12.8464964,20.8604632 C12.8345461,21.0287424 12.8448159,21.1992554 12.8233427,21.3660455 C12.7662051,21.8087092 13.217517,22.336071 13.6529574,22.3922881 C13.876466,22.4209552 14.1412406,22.5112377 14.2887526,22.6666726 C14.5867641,22.9805208 14.9064356,23.3237807 14.6933835,23.8379258 C14.6549183,23.9308144 14.6885287,24.0568377 14.6997321,24.1662937 C14.7402512,24.5655845 14.8072851,24.9637585 14.8214761,25.3636078 C14.8319327,25.6567934 14.774235,25.9520266 14.7503343,26.2465153 C14.7460396,26.3008709 14.7367034,26.3846383 14.7662058,26.4073485 C15.1056701,26.6681441 15.0679518,27.070041 15.1415211,27.4220499 C15.1878286,27.6428233 15.2740951,27.6824732 15.5246787,27.6078272 C15.0608563,26.4883236 15.5836835,25.4905618 15.8333335,24.4092189 C16.0691659,24.5465973 16.2424457,24.6473042 16.4551244,24.771466 C16.355227,24.8280554 16.3152681,24.8669607 16.2706411,24.8734759 C15.9543306,24.9192687 15.8667571,25.1342715 15.9382724,25.3943225 C16.1016559,25.9894427 16.2848321,26.5800953 16.4906019,27.1616266 C16.5251459,27.2597275 16.7131769,27.3036588 16.8304396,27.3727203 C16.852473,27.3518715 16.8746932,27.3308366 16.8969134,27.3099878 C16.9110811,27.3639785 16.9255241,27.4178428 16.9389523,27.4716247 L6.99536378,34.7014925 L11.3550323,21.4354099 L0,13.2548859 L14.0128322,13.2853037 L18.3136799,0 L22.6149023,13.2853037 L25.0272196,13.2800671 Z M26.8194356,13.2761765 L36.6271725,13.2548859 L29.0044421,18.7468135 C28.4807448,18.627854 27.9640889,18.4774662 27.4432713,18.34521 C27.381279,18.3293873 27.3146185,18.3316211 27.2481448,18.3251059 C27.2201258,18.91458 27.1925376,19.4950363 27.1650685,20.072022 L26.7846005,20.3461367 C26.6826709,20.0383084 26.5492622,19.7443808 26.2919312,19.5056665 C26.2586943,19.4747657 26.2562669,19.3422272 26.2807277,19.3280798 C26.5679093,19.1620344 26.4252521,18.9924521 26.2779269,18.8314327 C26.6482006,18.4369818 26.9979346,18.0548167 26.8491156,17.4669563 C26.8356715,17.414276 26.864427,17.3487513 26.8808587,17.2912311 C27.0522713,16.6933186 27.2347006,16.0981984 27.3943497,15.4973075 C27.4811763,15.1711735 27.6044142,14.8305197 27.5833143,14.5045718 C27.546149,13.9268761 27.2497209,13.5403629 26.8194356,13.2761765 Z M12.2835236,18.7681419 C12.0839156,18.7136001 11.8755317,18.6598028 11.7916926,18.3699679 C11.6889944,18.0159114 11.4520416,17.7026217 11.2965006,17.3612233 C11.1824122,17.110666 11.1054819,16.8429829 11.0119332,16.5829319 C11.0440497,16.569343 11.076353,16.5559402 11.1084695,16.5421652 C11.668268,17.0814405 11.871237,17.9421962 12.6803121,18.2590228 C12.6440876,18.3379502 12.6203737,18.3908167 12.5955394,18.4431247 C12.5266382,18.5886937 12.5143145,18.8314327 12.2835236,18.7681419 Z M14.8565803,21.3993663 C14.9618926,21.5559181 15.0672049,21.712656 15.1723305,21.8692078 C14.8649828,21.8626926 14.8207292,21.6573696 14.7759155,21.4529773 C14.8028037,21.435107 14.829692,21.4172366 14.8565803,21.3993663 Z M15.5904056,20.4245009 C15.7446396,20.7886095 15.8852427,21.1205142 16.0256592,21.4524189 C15.9888746,21.4676831 15.9520899,21.4831336 15.9153053,21.4983978 C15.6535183,21.1858527 15.3917312,20.8729352 15.0841968,20.5054759 C15.3362742,20.4652676 15.479865,20.4423712 15.5904056,20.4245009 Z M15.1648616,24.9200133 C15.1648616,24.5598139 15.1648616,24.2344244 15.1648616,23.877948 C15.5394299,24.116964 15.538683,24.4639469 15.1648616,24.9200133 Z"/>
    <path fill="#676785" d="M28.1435256,40.4897371 C28.3243264,39.6087762 28.4871189,38.7250015 28.5471836,37.8227856 C28.5671631,37.5240155 28.6229935,37.2276654 28.659218,36.9296399 C28.6806913,36.7524255 28.7740533,36.7058881 28.9301545,36.777928 C29.0300519,36.8240931 29.1306961,36.8723058 29.2218174,36.9331767 C29.6402659,37.2129596 30.0585276,37.4923701 30.4691337,37.782205 C30.6780778,37.9296355 30.8466896,37.9568133 31.100821,37.8265086 C31.2826901,37.7330615 31.5541868,37.7995169 31.7838573,37.8173873 C31.8732981,37.8242748 31.9578841,37.8937086 32.1380728,37.9784067 C32.1380728,37.5087513 32.1485293,37.1090881 32.1362055,36.7103557 C32.0968068,35.4665042 32.0448975,34.2230249 32.0060589,32.9791734 C31.9858927,32.3578061 31.9629257,32.3189009 31.3594337,32.1668166 C30.8969184,32.050287 30.8386605,31.9162593 30.9297818,31.4559114 C31.0106333,31.0469407 31.0603019,30.6260565 31.0672106,30.2096399 C31.0741194,29.7896865 31.0330402,29.3658239 30.9753424,28.9488488 C30.8455693,28.0061873 30.7014183,27.0652011 30.5464374,26.1260765 C30.3604603,24.9987546 30.0975529,23.8801818 29.9782363,22.7463446 C29.8706833,21.7227081 29.9078414,20.6836211 29.8882353,19.6512355 C29.8779655,19.1099125 29.6796646,18.8917452 29.1628126,18.7817308 C28.5847151,18.6583136 28.016514,18.490779 27.4432713,18.34521 C27.381279,18.3293873 27.3146185,18.3316211 27.2481448,18.3251059 C27.2029576,19.2757718 27.1588907,20.2029829 27.1146371,21.1300078 C27.0862551,21.1285186 27.057873,21.1266571 27.0289308,21.1249818 C26.8192398,20.5696976 26.7649031,19.9444211 26.2919312,19.5056665 C26.2586943,19.4747657 26.2562669,19.3422272 26.2807277,19.3280798 C26.5679093,19.1620344 26.4252521,18.9924521 26.2779269,18.8314327 C26.6482006,18.4369818 26.9979346,18.0548167 26.8491156,17.4669563 C26.8356715,17.414276 26.864427,17.3487513 26.8808587,17.2912311 C27.0522713,16.6933186 27.2347006,16.0981984 27.3943497,15.4973075 C27.4811763,15.1711735 27.6044142,14.8305197 27.5833143,14.5045718 C27.5325254,13.7151114 26.9975612,13.2826859 26.2984665,13.0315701 C25.876657,12.8800444 25.4707191,12.8973563 25.110155,13.2145552 C24.9908384,13.3193574 24.8436999,13.3930726 24.7075781,13.4783292 C24.196888,13.7983203 23.9976535,14.2525253 24.1154763,14.8401995 C24.1726138,15.1253807 24.2347929,15.4096311 24.2958517,15.6940676 C24.3989233,16.1743336 24.5839668,16.6545995 24.5830332,17.1344931 C24.5819128,17.5870228 24.7383875,17.873507 25.0644076,18.1292765 C25.3620457,18.3628942 25.6494139,18.6093563 25.9358485,18.8457663 C25.8779641,18.9697419 25.8329636,19.0665397 25.7803074,19.1793463 C26.1453529,19.3144909 26.095871,19.5764034 26.0288371,19.8580477 C25.9207239,20.3133696 25.8294159,20.7724145 25.7293318,21.2295978 C25.7237301,21.254728 25.7020701,21.2761352 25.6662191,21.3344 C25.6143098,21.2208488 25.57155,21.136523 25.5366326,21.0492189 C25.1880189,20.1741297 24.8360442,19.3005297 24.4969534,18.4219037 C24.5034888,18.2296111 24.445791,18.1382117 24.2924906,18.0765962 C23.9102666,17.9232089 23.5194533,17.7882505 23.1467522,17.6149452 C22.9981199,17.5456976 22.8450062,17.4176266 22.7684494,17.2763391 C22.6232013,17.0081432 22.4281649,16.8231387 22.1770297,16.7133522 L26.2557027,4.10447761 L31.9393645,21.6756176 L50.4557989,21.6351757 L35.4512084,32.4545788 L41.212068,50 L28.1435256,40.4897371 Z M22.3141081,41.9843116 L11.2993375,50 L16.8276152,33.1623897 C16.8943372,33.3960789 16.9640961,33.6291021 17.0259396,33.8641286 C17.0410643,33.9212765 16.999985,33.9966671 16.9758976,34.0601441 C16.863303,34.3566803 16.6872223,34.643723 16.6453961,34.9493806 C16.5544615,35.6137485 16.5290671,36.2870515 16.4833197,36.95719 C16.477718,37.0394682 16.511515,37.1243524 16.5270131,37.2081197 C16.5563288,37.2070028 16.5858312,37.2056997 16.6153336,37.2043967 C16.7049611,36.3611391 16.7251273,35.5035479 17.0808365,34.667364 C17.1349864,34.7429407 17.1755056,34.7764477 17.1859621,34.8177729 C17.3527066,35.4655734 17.6038504,36.08601 17.6402616,36.774205 C17.6744321,37.4203302 17.8398695,38.0590094 17.93902,38.7023424 C17.9787922,38.9612765 17.994477,39.2246781 18.3296466,39.3173806 C18.0452659,39.6518914 18.0598304,39.9804454 18.2344173,40.3237053 C18.2618658,40.3776886 18.2669073,40.4746726 18.2360978,40.52121 C18.0775692,40.7600399 17.9054097,40.9899346 17.7345572,41.2203878 C17.6591207,41.3222116 17.5323351,41.4065374 17.5022725,41.5182271 C17.3360882,42.1388499 16.915399,42.5275302 16.3767003,42.8263003 C16.2023001,42.9230981 16.0213645,43.0273418 15.8848693,43.1684432 C15.6081443,43.4541828 15.623269,43.6918958 15.9698287,43.8728332 C16.194271,43.9899213 16.4943364,44.0573075 16.7406254,44.0191468 C17.2740958,43.9361241 17.7888939,43.7723125 18.2392722,43.4331479 C18.3817426,43.3259258 18.62299,43.34119 18.8211041,43.3186659 C18.8957937,43.3102892 18.9796328,43.3778615 19.0541357,43.3687402 C19.9397676,43.2607734 20.2771778,43.2451368 20.028088,42.2090283 C19.8734806,41.5656953 19.7657408,40.9111934 19.9138129,40.2444055 C19.9608674,40.0327535 20.0512418,39.7939236 19.9950379,39.6047956 C19.9121324,39.3257573 20.0342499,39.1967557 20.2260155,39.0953042 C20.5964759,38.8992886 20.7114979,38.5921418 20.6224305,38.2133274 C20.5548364,37.9259125 20.43608,37.6496665 20.3339419,37.3708144 C20.3001449,37.2782981 20.2037953,37.1893186 20.2107041,37.1044344 C20.2441277,36.6842947 20.1966998,36.2837008 20.1285455,35.8639335 C20.0564701,35.4199668 20.2009945,34.931138 20.3029458,34.4733961 C20.3554152,34.2381031 20.3895857,34.0422737 20.286514,33.8101452 C20.2009945,33.6174804 20.1907246,33.3914948 20.1470312,33.1804011 C20.178961,33.1722105 20.2108908,33.16402 20.2426339,33.1558294 C20.2678416,33.19399 20.304813,33.2289862 20.3160164,33.271056 C20.4913503,33.9287225 20.7021617,34.580246 20.8261464,35.2475923 C20.9762725,36.0547369 20.9971856,36.8879424 21.1760672,37.6870826 C21.3403843,38.4212565 21.6215906,39.1451923 21.5216933,39.8994704 C21.4229163,40.6455579 21.7018819,41.0755634 22.2773653,41.3279823 C22.279608,41.5482988 22.292052,41.7670263 22.3141081,41.9843116 Z M16.4779962,32.0348991 L2.05560662,21.6351757 L12.8520821,21.6587566 C12.9601756,22.0143047 13.3114478,22.3481978 13.6529574,22.3922881 C13.876466,22.4209552 14.1412406,22.5112377 14.2887526,22.6666726 C14.5867641,22.9805208 14.9064356,23.3237807 14.6933835,23.8379258 C14.6549183,23.9308144 14.6885287,24.0568377 14.6997321,24.1662937 C14.7402512,24.5655845 14.8072851,24.9637585 14.8214761,25.3636078 C14.8319327,25.6567934 14.774235,25.9520266 14.7503343,26.2465153 C14.7460396,26.3008709 14.7367034,26.3846383 14.7662058,26.4073485 C15.1056701,26.6681441 15.0679518,27.070041 15.1415211,27.4220499 C15.1878286,27.6428233 15.2740951,27.6824732 15.5246787,27.6078272 C15.0608563,26.4883236 15.5836835,25.4905618 15.8333335,24.4092189 C16.0691659,24.5465973 16.2424457,24.6473042 16.4551244,24.771466 C16.355227,24.8280554 16.3152681,24.8669607 16.2706411,24.8734759 C15.9543306,24.9192687 15.8667571,25.1342715 15.9382724,25.3943225 C16.1016559,25.9894427 16.2848321,26.5800953 16.4906019,27.1616266 C16.5251459,27.2597275 16.7131769,27.3036588 16.8304396,27.3727203 C16.852473,27.3518715 16.8746932,27.3308366 16.8969134,27.3099878 C16.9895285,27.6629275 17.0939072,28.0104687 16.8496722,28.3648975 C16.786186,28.4568554 16.7691941,28.6040998 16.7820781,28.7200709 C16.8222238,29.0791535 16.9124114,29.4339546 16.9357519,29.7932233 C16.9635738,30.223415 16.9581588,30.657702 16.9340714,31.0884521 C16.9254821,31.2403502 16.8563942,31.4244521 16.7501483,31.5279513 C16.5964154,31.6779008 16.5206906,31.8455359 16.4779962,32.0348991 Z M14.8356667,21.663089 L15.0341707,21.6635226 C15.0802493,21.7320992 15.1263078,21.8006713 15.1723305,21.8692078 C14.9746716,21.8650178 14.8858265,21.7786023 14.8356667,21.663089 Z M15.1648616,24.9200133 C15.1648616,24.5598139 15.1648616,24.2344244 15.1648616,23.877948 C15.5394299,24.116964 15.538683,24.4639469 15.1648616,24.9200133 Z M29.3947238,29.7658593 C29.5848088,29.965784 29.7747072,30.1658948 30.0107263,30.413846 C29.687507,30.3952311 29.6770505,30.5622072 29.694976,30.7667856 C29.7108475,30.9520045 29.6981503,31.1396432 29.6981503,31.3261651 C29.6660338,31.3425463 29.6339173,31.3589274 29.6019875,31.3753086 C29.5439163,31.3118316 29.4436455,31.2533806 29.4352429,31.1837607 C29.3771718,30.7154083 29.3392668,30.244636 29.294453,29.7747945 C29.3280634,29.7716299 29.3611135,29.7688377 29.3947238,29.7658593 Z"/>
  </g>
</svg>
