<svg xmlns="http://www.w3.org/2000/svg" viewBox="0 0 393 489">
  <path d="M392.1,422.7 L364.1,107.4 C363.5,100.4 357.6,95.1 350.7,95.1 L293.1,95.1 C292.3,42.5 249.3,0 196.5,0 C143.7,0 100.7,42.5 99.9,95.1 L42.3,95.1 C35.3,95.1 29.5,100.4 28.9,107.4 L0.9,422.7 C0.9,423.1 0.8,423.5 0.8,423.9 C0.8,459.8 33.7,489 74.2,489 L318.8,489 C359.3,489 392.2,459.8 392.2,423.9 C392.2,423.5 392.2,423.1 392.1,422.7 Z M196.5,27 C234.4,27 265.3,57.4 266.1,95.1 L126.9,95.1 C127.7,57.4 158.6,27 196.5,27 Z M318.8,462 L74.2,462 C48.8,462 28.2,445.2 27.8,424.5 L54.6,122.2 L99.8,122.2 L99.8,163.2 C99.8,170.7 105.8,176.7 113.3,176.7 C120.8,176.7 126.8,170.7 126.8,163.2 L126.8,122.2 L266.1,122.2 L266.1,163.2 C266.1,170.7 272.1,176.7 279.6,176.7 C287.1,176.7 293.1,170.7 293.1,163.2 L293.1,122.2 L338.3,122.2 L365.2,424.5 C364.8,445.2 344.1,462 318.8,462 Z"/>
</svg>
